# MagicaVoxel @ Ephtracy

# group
o 

# material
mtllib Weapons-0.mtl
usemtl palette

# normals
vn 1 0 0
vn -1 0 0
vn 0 -1 0
vn 0 1 0
vn 0 0 1
vn 0 0 -1

# texcoords
vt 0.0292969 0.5
vt 0.0449219 0.5
vt 0.392578 0.5

# verts
v 3.4 0 0.1
v 3.4 0.1 0.1
v 3.4 0 0
v 3.4 0.1 0
v 3.3 0 0.2
v 3.3 0.1 0.2
v 3.3 0 0.1
v 3.3 0.1 0.1
v -0.6 0 0.1
v -0.6 0.1 0.1
v -0.6 0 0
v -0.6 0.1 0
v -0.7 0 0.2
v -0.7 0.1 0.2
v -0.7 0 0.1
v -0.7 0.1 0.1
v 3.4 0 0.1
v 3.4 0 0
v 3.3 0 0.2
v 3.3 0 0.1
v 0.9 0 0.1
v 0.9 0 0
v 0.8 0 0.2
v 0.8 0 0.1
v 0.8 0 0
v 0.7 0 0.2
v 0.7 0 0.1
v -0.3 0 0.1
v -0.3 0 0
v -0.4 0 0.2
v -0.4 0 0.1
v -0.4 0 0
v -0.5 0 0.2
v -0.5 0 0.1
v -0.6 0 0.1
v -0.6 0 0
v -0.7 0 0.2
v -0.7 0 0.1
v 3.4 0.1 0.1
v 3.4 0.1 0
v 3.3 0.1 0.2
v 3.3 0.1 0.1
v 0.9 0.1 0.1
v 0.9 0.1 0
v 0.8 0.1 0.2
v 0.8 0.1 0.1
v 0.8 0.1 0
v 0.7 0.1 0.2
v 0.7 0.1 0.1
v -0.3 0.1 0.1
v -0.3 0.1 0
v -0.4 0.1 0.2
v -0.4 0.1 0.1
v -0.4 0.1 0
v -0.5 0.1 0.2
v -0.5 0.1 0.1
v -0.6 0.1 0.1
v -0.6 0.1 0
v -0.7 0.1 0.2
v -0.7 0.1 0.1
v 3.3 0 0.2
v 0.8 0 0.2
v 0.7 0 0.2
v -0.4 0 0.2
v -0.5 0 0.2
v -0.7 0 0.2
v 3.3 0.1 0.2
v 0.8 0.1 0.2
v 0.7 0.1 0.2
v -0.4 0.1 0.2
v -0.5 0.1 0.2
v -0.7 0.1 0.2
v 3.4 0 0.1
v 3.3 0 0.1
v 3.4 0.1 0.1
v 3.3 0.1 0.1
v -0.6 0 0.1
v -0.7 0 0.1
v -0.6 0.1 0.1
v -0.7 0.1 0.1
v 3.4 0 0
v 0.9 0 0
v 0.8 0 0
v -0.3 0 0
v -0.4 0 0
v -0.6 0 0
v 3.4 0.1 0
v 0.9 0.1 0
v 0.8 0.1 0
v -0.3 0.1 0
v -0.4 0.1 0
v -0.6 0.1 0

# faces
f 3/3/1 2/3/1 1/3/1
f 4/3/1 2/3/1 3/3/1
f 7/3/1 6/3/1 5/3/1
f 8/3/1 6/3/1 7/3/1
f 9/3/2 10/3/2 11/3/2
f 11/3/2 10/3/2 12/3/2
f 13/3/2 14/3/2 15/3/2
f 15/3/2 14/3/2 16/3/2
f 20/3/3 18/3/3 17/3/3
f 21/3/3 18/3/3 20/3/3
f 21/3/3 20/3/3 19/3/3
f 22/3/3 18/3/3 21/3/3
f 23/3/3 21/3/3 19/3/3
f 24/1/3 22/1/3 21/1/3
f 24/3/3 21/3/3 23/3/3
f 25/1/3 22/1/3 24/1/3
f 26/1/3 24/1/3 23/1/3
f 27/2/3 25/2/3 24/2/3
f 27/1/3 24/1/3 26/1/3
f 28/2/3 27/2/3 26/2/3
f 28/2/3 25/2/3 27/2/3
f 29/2/3 25/2/3 28/2/3
f 30/2/3 28/2/3 26/2/3
f 31/1/3 29/1/3 28/1/3
f 31/2/3 28/2/3 30/2/3
f 32/1/3 29/1/3 31/1/3
f 33/1/3 31/1/3 30/1/3
f 34/3/3 32/3/3 31/3/3
f 34/1/3 31/1/3 33/1/3
f 35/3/3 34/3/3 33/3/3
f 35/3/3 32/3/3 34/3/3
f 36/3/3 32/3/3 35/3/3
f 37/3/3 35/3/3 33/3/3
f 38/3/3 35/3/3 37/3/3
f 39/3/4 40/3/4 42/3/4
f 42/3/4 40/3/4 43/3/4
f 41/3/4 42/3/4 43/3/4
f 43/3/4 40/3/4 44/3/4
f 41/3/4 43/3/4 45/3/4
f 43/1/4 44/1/4 46/1/4
f 45/3/4 43/3/4 46/3/4
f 46/1/4 44/1/4 47/1/4
f 45/1/4 46/1/4 48/1/4
f 46/2/4 47/2/4 49/2/4
f 48/1/4 46/1/4 49/1/4
f 48/2/4 49/2/4 50/2/4
f 49/2/4 47/2/4 50/2/4
f 50/2/4 47/2/4 51/2/4
f 48/2/4 50/2/4 52/2/4
f 50/1/4 51/1/4 53/1/4
f 52/2/4 50/2/4 53/2/4
f 53/1/4 51/1/4 54/1/4
f 52/1/4 53/1/4 55/1/4
f 53/3/4 54/3/4 56/3/4
f 55/1/4 53/1/4 56/1/4
f 55/3/4 56/3/4 57/3/4
f 56/3/4 54/3/4 57/3/4
f 57/3/4 54/3/4 58/3/4
f 55/3/4 57/3/4 59/3/4
f 59/3/4 57/3/4 60/3/4
f 67/3/5 62/3/5 61/3/5
f 68/1/5 63/1/5 62/1/5
f 68/3/5 62/3/5 67/3/5
f 69/2/5 64/2/5 63/2/5
f 69/1/5 63/1/5 68/1/5
f 70/1/5 65/1/5 64/1/5
f 70/2/5 64/2/5 69/2/5
f 71/3/5 66/3/5 65/3/5
f 71/1/5 65/1/5 70/1/5
f 72/3/5 66/3/5 71/3/5
f 75/3/5 74/3/5 73/3/5
f 76/3/5 74/3/5 75/3/5
f 77/3/6 78/3/6 79/3/6
f 79/3/6 78/3/6 80/3/6
f 81/3/6 82/3/6 87/3/6
f 82/1/6 83/1/6 88/1/6
f 87/3/6 82/3/6 88/3/6
f 83/2/6 84/2/6 89/2/6
f 88/1/6 83/1/6 89/1/6
f 84/1/6 85/1/6 90/1/6
f 89/2/6 84/2/6 90/2/6
f 85/3/6 86/3/6 91/3/6
f 90/1/6 85/1/6 91/1/6
f 91/3/6 86/3/6 92/3/6
