# MagicaVoxel @ Ephtracy

# group
o 

# material
mtllib Weapons-3.mtl
usemtl palette

# normals
vn 1 0 0
vn -1 0 0
vn 0 -1 0
vn 0 1 0
vn 0 0 -1
vn 0 0 1

# texcoords
vt 0.0292969 0.5
vt 0.0449219 0.5
vt 0.431641 0.5

# verts
v 3.4 0 0.2
v 3.4 0.1 0.2
v 3.4 0 0.3
v 3.4 0.1 0.3
v 3.3 0 0.1
v 3.3 0.1 0.1
v 3.3 0 0.2
v 3.3 0.1 0.2
v 3.2 0 0
v 3.2 0.1 0
v 3.2 0 0.1
v 3.2 0.1 0.1
v 0.7 0 0.2
v 0.7 0.1 0.2
v 0.7 0 0.3
v 0.7 0.1 0.3
v 0.5 0 0
v 0.5 0.1 0
v 0.5 0 0.1
v 0.5 0.1 0.1
v -0.7 0 0.1
v -0.7 0.1 0.1
v -0.7 0 0.2
v -0.7 0.1 0.2
v 3.4 0 0.2
v 3.4 0 0.3
v 3.3 0 0.1
v 3.3 0 0.2
v 3.2 0 0
v 3.2 0 0.1
v 0.9 0 0.2
v 0.9 0 0.3
v 0.8 0 0.1
v 0.8 0 0.2
v 0.7 0 0
v 0.7 0 0.1
v 0.7 0 0.2
v 0.7 0 0.3
v 0.6 0 0.1
v 0.6 0 0.2
v 0.5 0 0
v 0.5 0 0.1
v -0.7 0 0.1
v -0.7 0 0.2
v 3.4 0.1 0.2
v 3.4 0.1 0.3
v 3.3 0.1 0.1
v 3.3 0.1 0.2
v 3.2 0.1 0
v 3.2 0.1 0.1
v 0.9 0.1 0.2
v 0.9 0.1 0.3
v 0.8 0.1 0.1
v 0.8 0.1 0.2
v 0.7 0.1 0
v 0.7 0.1 0.1
v 0.7 0.1 0.2
v 0.7 0.1 0.3
v 0.6 0.1 0.1
v 0.6 0.1 0.2
v 0.5 0.1 0
v 0.5 0.1 0.1
v -0.7 0.1 0.1
v -0.7 0.1 0.2
v 3.2 0 0
v 0.7 0 0
v 0.5 0 0
v 3.2 0.1 0
v 0.7 0.1 0
v 0.5 0.1 0
v 3.3 0 0.1
v 3.2 0 0.1
v 0.5 0 0.1
v -0.7 0 0.1
v 3.3 0.1 0.1
v 3.2 0.1 0.1
v 0.5 0.1 0.1
v -0.7 0.1 0.1
v 3.4 0 0.2
v 3.3 0 0.2
v 3.4 0.1 0.2
v 3.3 0.1 0.2
v 0.7 0 0.2
v 0.6 0 0.2
v -0.7 0 0.2
v 0.7 0.1 0.2
v 0.6 0.1 0.2
v -0.7 0.1 0.2
v 3.4 0 0.3
v 0.9 0 0.3
v 0.7 0 0.3
v 3.4 0.1 0.3
v 0.9 0.1 0.3
v 0.7 0.1 0.3

# faces
f 1/3/1 2/3/1 3/3/1
f 3/3/1 2/3/1 4/3/1
f 5/3/1 6/3/1 7/3/1
f 7/3/1 6/3/1 8/3/1
f 9/3/1 10/3/1 11/3/1
f 11/3/1 10/3/1 12/3/1
f 15/1/2 14/1/2 13/1/2
f 16/1/2 14/1/2 15/1/2
f 19/1/2 18/1/2 17/1/2
f 20/1/2 18/1/2 19/1/2
f 23/2/2 22/2/2 21/2/2
f 24/2/2 22/2/2 23/2/2
f 25/3/3 26/3/3 28/3/3
f 27/3/3 28/3/3 30/3/3
f 28/3/3 26/3/3 31/3/3
f 29/3/3 30/3/3 31/3/3
f 30/3/3 28/3/3 31/3/3
f 31/3/3 26/3/3 32/3/3
f 29/3/3 31/3/3 33/3/3
f 31/1/3 32/1/3 34/1/3
f 33/3/3 31/3/3 34/3/3
f 29/3/3 33/3/3 35/3/3
f 33/1/3 34/1/3 36/1/3
f 35/3/3 33/3/3 36/3/3
f 34/1/3 32/1/3 37/1/3
f 36/1/3 34/1/3 37/1/3
f 37/1/3 32/1/3 38/1/3
f 35/1/3 36/1/3 39/1/3
f 36/1/3 37/1/3 39/1/3
f 39/1/3 37/1/3 40/1/3
f 35/1/3 39/1/3 41/1/3
f 39/2/3 40/2/3 42/2/3
f 41/1/3 39/1/3 42/1/3
f 42/2/3 40/2/3 43/2/3
f 43/2/3 40/2/3 44/2/3
f 48/3/4 46/3/4 45/3/4
f 50/3/4 48/3/4 47/3/4
f 51/3/4 46/3/4 48/3/4
f 51/3/4 50/3/4 49/3/4
f 51/3/4 48/3/4 50/3/4
f 52/3/4 46/3/4 51/3/4
f 53/3/4 51/3/4 49/3/4
f 54/1/4 52/1/4 51/1/4
f 54/3/4 51/3/4 53/3/4
f 55/3/4 53/3/4 49/3/4
f 56/1/4 54/1/4 53/1/4
f 56/3/4 53/3/4 55/3/4
f 57/1/4 52/1/4 54/1/4
f 57/1/4 54/1/4 56/1/4
f 58/1/4 52/1/4 57/1/4
f 59/1/4 56/1/4 55/1/4
f 59/1/4 57/1/4 56/1/4
f 60/1/4 57/1/4 59/1/4
f 61/1/4 59/1/4 55/1/4
f 62/2/4 60/2/4 59/2/4
f 62/1/4 59/1/4 61/1/4
f 63/2/4 60/2/4 62/2/4
f 64/2/4 60/2/4 63/2/4
f 65/3/5 66/3/5 68/3/5
f 66/1/5 67/1/5 69/1/5
f 68/3/5 66/3/5 69/3/5
f 69/1/5 67/1/5 70/1/5
f 71/3/5 72/3/5 75/3/5
f 75/3/5 72/3/5 76/3/5
f 73/2/5 74/2/5 77/2/5
f 77/2/5 74/2/5 78/2/5
f 79/3/5 80/3/5 81/3/5
f 81/3/5 80/3/5 82/3/5
f 86/1/6 84/1/6 83/1/6
f 87/2/6 85/2/6 84/2/6
f 87/1/6 84/1/6 86/1/6
f 88/2/6 85/2/6 87/2/6
f 92/3/6 90/3/6 89/3/6
f 93/1/6 91/1/6 90/1/6
f 93/3/6 90/3/6 92/3/6
f 94/1/6 91/1/6 93/1/6
