# MagicaVoxel @ Ephtracy

# group
o 

# material
mtllib Weapons-1.mtl
usemtl palette

# normals
vn 1 0 0
vn -1 0 0
vn 0 0 1
vn 0 0 -1
vn 0 -1 0
vn 0 1 0

# texcoords
vt 0.0292969 0.5
vt 0.0449219 0.5
vt 0.388672 0.5

# verts
v 6.1 0 0.2
v 6.1 0 0.1
v 6.1 0.1 0.2
v 6.1 0.1 0.1
v 6 0 0.1
v 6 0 0
v 6 0.1 0.1
v 6 0.1 0
v 5.9 0 0
v 5.9 0 -0.1
v 5.9 0.1 0
v 5.9 0.1 -0.1
v 1.4 0 0.3
v 1.4 0 0.2
v 1.4 0.1 0.3
v 1.4 0.1 0.2
v 1 0 -0.1
v 1 0 -0.2
v 1 0.1 -0.1
v 1 0.1 -0.2
v 1.3 0 0.3
v 1.3 0 0.2
v 1.3 0.1 0.3
v 1.3 0.1 0.2
v 1 0 0
v 1 0 -0.1
v 1 0.1 0
v 1 0.1 -0.1
v 0.9 0 -0.1
v 0.9 0 -0.2
v 0.9 0.1 -0.1
v 0.9 0.1 -0.2
v -0.5 0 0.2
v -0.5 0 0.1
v -0.5 0.1 0.2
v -0.5 0.1 0.1
v -0.6 0 0.1
v -0.6 0 0
v -0.6 0.1 0.1
v -0.6 0.1 0
v 1.4 0 0.3
v 1.4 0.1 0.3
v 1.3 0 0.3
v 1.3 0.1 0.3
v 6.1 0 0.2
v 6.1 0.1 0.2
v 1.4 0 0.2
v 1.4 0.1 0.2
v 1.3 0 0.2
v 1.3 0.1 0.2
v 1.2 0 0.2
v 1.2 0.1 0.2
v -0.5 0 0.2
v -0.5 0.1 0.2
v -0.5 0 0.1
v -0.5 0.1 0.1
v -0.6 0 0.1
v -0.6 0.1 0.1
v 1 0 -0.1
v 1 0.1 -0.1
v 0.9 0 -0.1
v 0.9 0.1 -0.1
v 6.1 0 0.1
v 6.1 0.1 0.1
v 6 0 0.1
v 6 0.1 0.1
v 6 0 0
v 6 0.1 0
v 5.9 0 0
v 5.9 0.1 0
v 1 0 0
v 1 0.1 0
v -0.6 0 0
v -0.6 0.1 0
v 5.9 0 -0.1
v 5.9 0.1 -0.1
v 1.1 0 -0.1
v 1.1 0.1 -0.1
v 1 0 -0.1
v 1 0.1 -0.1
v 1 0 -0.2
v 1 0.1 -0.2
v 0.9 0 -0.2
v 0.9 0.1 -0.2
v 1.4 0 0.3
v 1.3 0 0.3
v 6.1 0 0.2
v 1.4 0 0.2
v 1.3 0 0.2
v 1.2 0 0.2
v -0.5 0 0.2
v 6.1 0 0.1
v 6 0 0.1
v 1.3 0 0.1
v 1.2 0 0.1
v 1.1 0 0.1
v -0.5 0 0.1
v -0.6 0 0.1
v 6 0 0
v 5.9 0 0
v 1.2 0 0
v 1.1 0 0
v 1 0 0
v -0.6 0 0
v 5.9 0 -0.1
v 1.1 0 -0.1
v 1 0 -0.1
v 0.9 0 -0.1
v 1 0 -0.2
v 0.9 0 -0.2
v 1.4 0.1 0.3
v 1.3 0.1 0.3
v 6.1 0.1 0.2
v 1.4 0.1 0.2
v 1.3 0.1 0.2
v 1.2 0.1 0.2
v -0.5 0.1 0.2
v 6.1 0.1 0.1
v 6 0.1 0.1
v 1.3 0.1 0.1
v 1.2 0.1 0.1
v 1.1 0.1 0.1
v -0.5 0.1 0.1
v -0.6 0.1 0.1
v 6 0.1 0
v 5.9 0.1 0
v 1.2 0.1 0
v 1.1 0.1 0
v 1 0.1 0
v -0.6 0.1 0
v 5.9 0.1 -0.1
v 1.1 0.1 -0.1
v 1 0.1 -0.1
v 0.9 0.1 -0.1
v 1 0.1 -0.2
v 0.9 0.1 -0.2

# faces
f 1/3/1 2/3/1 3/3/1
f 3/3/1 2/3/1 4/3/1
f 5/3/1 6/3/1 7/3/1
f 7/3/1 6/3/1 8/3/1
f 9/3/1 10/3/1 11/3/1
f 11/3/1 10/3/1 12/3/1
f 13/1/1 14/1/1 15/1/1
f 15/1/1 14/1/1 16/1/1
f 17/1/1 18/1/1 19/1/1
f 19/1/1 18/1/1 20/1/1
f 23/1/2 22/1/2 21/1/2
f 24/1/2 22/1/2 23/1/2
f 27/1/2 26/1/2 25/1/2
f 28/1/2 26/1/2 27/1/2
f 31/1/2 30/1/2 29/1/2
f 32/1/2 30/1/2 31/1/2
f 35/2/2 34/2/2 33/2/2
f 36/2/2 34/2/2 35/2/2
f 39/2/2 38/2/2 37/2/2
f 40/2/2 38/2/2 39/2/2
f 41/1/3 42/1/3 43/1/3
f 43/1/3 42/1/3 44/1/3
f 45/3/3 46/3/3 47/3/3
f 47/3/3 46/3/3 48/3/3
f 49/1/3 50/1/3 51/1/3
f 51/1/3 50/1/3 52/1/3
f 51/2/3 52/2/3 53/2/3
f 53/2/3 52/2/3 54/2/3
f 55/2/3 56/2/3 57/2/3
f 57/2/3 56/2/3 58/2/3
f 59/1/3 60/1/3 61/1/3
f 61/1/3 60/1/3 62/1/3
f 65/3/4 64/3/4 63/3/4
f 66/3/4 64/3/4 65/3/4
f 69/3/4 68/3/4 67/3/4
f 70/3/4 68/3/4 69/3/4
f 73/2/4 72/2/4 71/2/4
f 74/2/4 72/2/4 73/2/4
f 77/3/4 76/3/4 75/3/4
f 78/3/4 76/3/4 77/3/4
f 79/1/4 78/1/4 77/1/4
f 80/1/4 78/1/4 79/1/4
f 83/1/4 82/1/4 81/1/4
f 84/1/4 82/1/4 83/1/4
f 85/1/5 86/1/5 88/1/5
f 88/1/5 86/1/5 89/1/5
f 87/3/5 88/3/5 92/3/5
f 88/3/5 89/3/5 92/3/5
f 92/3/5 89/3/5 93/3/5
f 89/1/5 90/1/5 94/1/5
f 93/3/5 89/3/5 94/3/5
f 90/2/5 91/2/5 95/2/5
f 94/1/5 90/1/5 95/1/5
f 95/2/5 91/2/5 96/2/5
f 96/2/5 91/2/5 97/2/5
f 93/3/5 94/3/5 99/3/5
f 94/3/5 95/3/5 99/3/5
f 99/3/5 95/3/5 100/3/5
f 95/1/5 96/1/5 101/1/5
f 100/3/5 95/3/5 101/3/5
f 97/2/5 98/2/5 102/2/5
f 101/1/5 96/1/5 102/1/5
f 96/2/5 97/2/5 102/2/5
f 102/2/5 98/2/5 103/2/5
f 103/2/5 98/2/5 104/2/5
f 100/3/5 101/3/5 105/3/5
f 101/3/5 102/3/5 105/3/5
f 102/1/5 103/1/5 106/1/5
f 105/3/5 102/3/5 106/3/5
f 106/1/5 103/1/5 107/1/5
f 107/1/5 108/1/5 109/1/5
f 109/1/5 108/1/5 110/1/5
f 114/1/6 112/1/6 111/1/6
f 115/1/6 112/1/6 114/1/6
f 118/3/6 114/3/6 113/3/6
f 118/3/6 115/3/6 114/3/6
f 119/3/6 115/3/6 118/3/6
f 120/1/6 116/1/6 115/1/6
f 120/3/6 115/3/6 119/3/6
f 121/2/6 117/2/6 116/2/6
f 121/1/6 116/1/6 120/1/6
f 122/2/6 117/2/6 121/2/6
f 123/2/6 117/2/6 122/2/6
f 125/3/6 120/3/6 119/3/6
f 125/3/6 121/3/6 120/3/6
f 126/3/6 121/3/6 125/3/6
f 127/1/6 122/1/6 121/1/6
f 127/3/6 121/3/6 126/3/6
f 128/2/6 124/2/6 123/2/6
f 128/1/6 122/1/6 127/1/6
f 128/2/6 123/2/6 122/2/6
f 129/2/6 124/2/6 128/2/6
f 130/2/6 124/2/6 129/2/6
f 131/3/6 127/3/6 126/3/6
f 131/3/6 128/3/6 127/3/6
f 132/1/6 129/1/6 128/1/6
f 132/3/6 128/3/6 131/3/6
f 133/1/6 129/1/6 132/1/6
f 135/1/6 134/1/6 133/1/6
f 136/1/6 134/1/6 135/1/6
