# MagicaVoxel @ Ephtracy

# group
o 

# material
mtllib Door.mtl
usemtl palette

# normals
vn 0 0 -1
vn 0 0 1
vn -1 0 0
vn 1 0 0
vn 0 -1 0
vn 0 1 0

# texcoords
vt 0.0292969 0.5
vt 0.0449219 0.5

# verts
v -5 0 -5
v -1.8 0 -5
v 1.8 0 -5
v 5 0 -5
v -1.8 6.7 -5
v -1.7 6.7 -5
v 1.7 6.7 -5
v 1.8 6.7 -5
v -1.7 6.8 -5
v -1.6 6.8 -5
v 1.6 6.8 -5
v 1.7 6.8 -5
v -1.6 6.9 -5
v -1.5 6.9 -5
v 1.5 6.9 -5
v 1.6 6.9 -5
v -1.5 7 -5
v 1.5 7 -5
v -5 7.9 -5
v 5 7.9 -5
v -5 8 -5
v 5 8 -5
v -5 2.5 -4.5
v -1.9 2.5 -4.5
v 1.9 2.5 -4.5
v 5 2.5 -4.5
v -1.9 6.7 -4.5
v -1.8 6.7 -4.5
v 1.8 6.7 -4.5
v 1.9 6.7 -4.5
v -1.8 6.8 -4.5
v -1.7 6.8 -4.5
v 1.7 6.8 -4.5
v 1.8 6.8 -4.5
v -1.7 6.9 -4.5
v -1.6 6.9 -4.5
v 1.6 6.9 -4.5
v 1.7 6.9 -4.5
v -1.6 7 -4.5
v -1.5 7 -4.5
v 1.5 7 -4.5
v 1.6 7 -4.5
v -1.5 7.1 -4.5
v 1.5 7.1 -4.5
v -5 7.9 -4.5
v 5 7.9 -4.5
v -5 8 -4.5
v 5 8 -4.5
v -5 2.4 -4.4
v -1.9 2.4 -4.4
v 1.9 2.4 -4.4
v 5 2.4 -4.4
v -5 2.5 -4.4
v -1.9 2.5 -4.4
v -1.8 2.5 -4.4
v 1.8 2.5 -4.4
v 1.9 2.5 -4.4
v 5 2.5 -4.4
v -1.9 6.7 -4.4
v -1.8 6.7 -4.4
v -1.7 6.7 -4.4
v 1.7 6.7 -4.4
v 1.8 6.7 -4.4
v 1.9 6.7 -4.4
v -1.8 6.8 -4.4
v -1.7 6.8 -4.4
v -1.6 6.8 -4.4
v 1.6 6.8 -4.4
v 1.7 6.8 -4.4
v 1.8 6.8 -4.4
v -1.7 6.9 -4.4
v -1.6 6.9 -4.4
v -1.5 6.9 -4.4
v 1.5 6.9 -4.4
v 1.6 6.9 -4.4
v 1.7 6.9 -4.4
v -1.6 7 -4.4
v -1.5 7 -4.4
v 1.5 7 -4.4
v 1.6 7 -4.4
v -1.5 7.1 -4.4
v 1.5 7.1 -4.4
v -5 0 -4.3
v -1.9 0 -4.3
v 1.9 0 -4.3
v 5 0 -4.3
v -5 2.4 -4.3
v -1.9 2.4 -4.3
v -1.8 2.4 -4.3
v 1.8 2.4 -4.3
v 1.9 2.4 -4.3
v 5 2.4 -4.3
v -1.9 2.5 -4.3
v -1.8 2.5 -4.3
v 1.8 2.5 -4.3
v 1.9 2.5 -4.3
v -1.9 0 -4.2
v -1.8 0 -4.2
v 1.8 0 -4.2
v 1.9 0 -4.2
v -1.9 2.4 -4.2
v -1.8 2.4 -4.2
v 1.8 2.4 -4.2
v 1.9 2.4 -4.2
v -5 0 -5
v -5 7.9 -5
v -5 8 -5
v -5 2.5 -4.5
v -5 7.9 -4.5
v -5 8 -4.5
v -5 2.4 -4.4
v -5 2.5 -4.4
v -5 0 -4.3
v -5 2.4 -4.3
v -1.9 2.5 -4.5
v -1.9 6.7 -4.5
v -1.9 2.4 -4.4
v -1.9 2.5 -4.4
v -1.9 6.7 -4.4
v -1.9 0 -4.3
v -1.9 2.4 -4.3
v -1.9 2.5 -4.3
v -1.9 0 -4.2
v -1.9 2.4 -4.2
v -1.8 6.7 -4.5
v -1.8 6.8 -4.5
v -1.8 6.7 -4.4
v -1.8 6.8 -4.4
v -1.7 6.8 -4.5
v -1.7 6.9 -4.5
v -1.7 6.8 -4.4
v -1.7 6.9 -4.4
v -1.6 6.9 -4.5
v -1.6 7 -4.5
v -1.6 6.9 -4.4
v -1.6 7 -4.4
v -1.5 7 -4.5
v -1.5 7.1 -4.5
v -1.5 7 -4.4
v -1.5 7.1 -4.4
v 1.5 6.9 -5
v 1.5 7 -5
v 1.5 6.9 -4.5
v 1.5 7 -4.5
v 1.5 6.9 -4.4
v 1.5 7 -4.4
v 1.6 6.8 -5
v 1.6 6.9 -5
v 1.6 6.8 -4.5
v 1.6 6.9 -4.5
v 1.6 6.8 -4.4
v 1.6 6.9 -4.4
v 1.7 6.7 -5
v 1.7 6.8 -5
v 1.7 6.7 -4.5
v 1.7 6.8 -4.5
v 1.7 6.7 -4.4
v 1.7 6.8 -4.4
v 1.8 0 -5
v 1.8 6.7 -5
v 1.8 2.5 -4.5
v 1.8 6.7 -4.5
v 1.8 2.4 -4.4
v 1.8 2.5 -4.4
v 1.8 6.7 -4.4
v 1.8 0 -4.3
v 1.8 2.4 -4.3
v 1.8 2.5 -4.3
v 1.8 0 -4.2
v 1.8 2.4 -4.2
v -1.8 0 -5
v -1.8 6.7 -5
v -1.8 2.5 -4.5
v -1.8 6.7 -4.5
v -1.8 2.4 -4.4
v -1.8 2.5 -4.4
v -1.8 6.7 -4.4
v -1.8 0 -4.3
v -1.8 2.4 -4.3
v -1.8 2.5 -4.3
v -1.8 0 -4.2
v -1.8 2.4 -4.2
v -1.7 6.7 -5
v -1.7 6.8 -5
v -1.7 6.7 -4.5
v -1.7 6.8 -4.5
v -1.7 6.7 -4.4
v -1.7 6.8 -4.4
v -1.6 6.8 -5
v -1.6 6.9 -5
v -1.6 6.8 -4.5
v -1.6 6.9 -4.5
v -1.6 6.8 -4.4
v -1.6 6.9 -4.4
v -1.5 6.9 -5
v -1.5 7 -5
v -1.5 6.9 -4.5
v -1.5 7 -4.5
v -1.5 6.9 -4.4
v -1.5 7 -4.4
v 1.5 7 -4.5
v 1.5 7.1 -4.5
v 1.5 7 -4.4
v 1.5 7.1 -4.4
v 1.6 6.9 -4.5
v 1.6 7 -4.5
v 1.6 6.9 -4.4
v 1.6 7 -4.4
v 1.7 6.8 -4.5
v 1.7 6.9 -4.5
v 1.7 6.8 -4.4
v 1.7 6.9 -4.4
v 1.8 6.7 -4.5
v 1.8 6.8 -4.5
v 1.8 6.7 -4.4
v 1.8 6.8 -4.4
v 1.9 2.5 -4.5
v 1.9 6.7 -4.5
v 1.9 2.4 -4.4
v 1.9 2.5 -4.4
v 1.9 6.7 -4.4
v 1.9 0 -4.3
v 1.9 2.4 -4.3
v 1.9 2.5 -4.3
v 1.9 0 -4.2
v 1.9 2.4 -4.2
v 5 0 -5
v 5 7.9 -5
v 5 8 -5
v 5 2.5 -4.5
v 5 7.9 -4.5
v 5 8 -4.5
v 5 2.4 -4.4
v 5 2.5 -4.4
v 5 0 -4.3
v 5 2.4 -4.3
v -5 0 -5
v -5 0 -4.3
v -1.9 0 -4.3
v -1.9 0 -4.2
v -1.8 0 -5
v -1.8 0 -4.3
v -1.8 0 -4.2
v 1.8 0 -5
v 1.8 0 -4.3
v 1.8 0 -4.2
v 1.9 0 -4.3
v 1.9 0 -4.2
v 5 0 -5
v 5 0 -4.3
v -1.8 6.7 -5
v -1.8 6.7 -4.5
v -1.8 6.7 -4.4
v -1.7 6.7 -5
v -1.7 6.7 -4.5
v -1.7 6.7 -4.4
v 1.7 6.7 -5
v 1.7 6.7 -4.5
v 1.7 6.7 -4.4
v 1.8 6.7 -5
v 1.8 6.7 -4.5
v 1.8 6.7 -4.4
v -1.7 6.8 -5
v -1.7 6.8 -4.5
v -1.7 6.8 -4.4
v -1.6 6.8 -5
v -1.6 6.8 -4.5
v -1.6 6.8 -4.4
v 1.6 6.8 -5
v 1.6 6.8 -4.5
v 1.6 6.8 -4.4
v 1.7 6.8 -5
v 1.7 6.8 -4.5
v 1.7 6.8 -4.4
v -1.6 6.9 -5
v -1.6 6.9 -4.5
v -1.6 6.9 -4.4
v -1.5 6.9 -5
v -1.5 6.9 -4.5
v -1.5 6.9 -4.4
v 1.5 6.9 -5
v 1.5 6.9 -4.5
v 1.5 6.9 -4.4
v 1.6 6.9 -5
v 1.6 6.9 -4.5
v 1.6 6.9 -4.4
v -1.5 7 -5
v -1.5 7 -4.5
v -1.5 7 -4.4
v 1.5 7 -5
v 1.5 7 -4.5
v 1.5 7 -4.4
v -5 2.4 -4.4
v -5 2.4 -4.3
v -1.9 2.4 -4.4
v -1.9 2.4 -4.3
v -1.9 2.4 -4.2
v -1.8 2.4 -4.3
v -1.8 2.4 -4.2
v 1.8 2.4 -4.3
v 1.8 2.4 -4.2
v 1.9 2.4 -4.4
v 1.9 2.4 -4.3
v 1.9 2.4 -4.2
v 5 2.4 -4.4
v 5 2.4 -4.3
v -5 2.5 -4.5
v -5 2.5 -4.4
v -1.9 2.5 -4.5
v -1.9 2.5 -4.4
v -1.9 2.5 -4.3
v -1.8 2.5 -4.4
v -1.8 2.5 -4.3
v 1.8 2.5 -4.4
v 1.8 2.5 -4.3
v 1.9 2.5 -4.5
v 1.9 2.5 -4.4
v 1.9 2.5 -4.3
v 5 2.5 -4.5
v 5 2.5 -4.4
v -1.9 6.7 -4.5
v -1.9 6.7 -4.4
v -1.8 6.7 -4.5
v -1.8 6.7 -4.4
v 1.8 6.7 -4.5
v 1.8 6.7 -4.4
v 1.9 6.7 -4.5
v 1.9 6.7 -4.4
v -1.8 6.8 -4.5
v -1.8 6.8 -4.4
v -1.7 6.8 -4.5
v -1.7 6.8 -4.4
v 1.7 6.8 -4.5
v 1.7 6.8 -4.4
v 1.8 6.8 -4.5
v 1.8 6.8 -4.4
v -1.7 6.9 -4.5
v -1.7 6.9 -4.4
v -1.6 6.9 -4.5
v -1.6 6.9 -4.4
v 1.6 6.9 -4.5
v 1.6 6.9 -4.4
v 1.7 6.9 -4.5
v 1.7 6.9 -4.4
v -1.6 7 -4.5
v -1.6 7 -4.4
v -1.5 7 -4.5
v -1.5 7 -4.4
v 1.5 7 -4.5
v 1.5 7 -4.4
v 1.6 7 -4.5
v 1.6 7 -4.4
v -1.5 7.1 -4.5
v -1.5 7.1 -4.4
v 1.5 7.1 -4.5
v 1.5 7.1 -4.4
v -5 8 -5
v -5 8 -4.5
v 5 8 -5
v 5 8 -4.5

# faces
f 5/2/1 2/2/1 1/2/1
f 8/2/1 4/2/1 3/2/1
f 9/2/1 6/2/1 5/2/1
f 12/2/1 8/2/1 7/2/1
f 13/2/1 10/2/1 9/2/1
f 16/2/1 12/2/1 11/2/1
f 17/2/1 14/2/1 13/2/1
f 18/2/1 16/2/1 15/2/1
f 19/2/1 17/2/1 13/2/1
f 19/2/1 18/2/1 17/2/1
f 19/2/1 5/2/1 1/2/1
f 19/2/1 9/2/1 5/2/1
f 19/2/1 13/2/1 9/2/1
f 20/2/1 16/2/1 18/2/1
f 20/2/1 18/2/1 19/2/1
f 20/2/1 4/2/1 8/2/1
f 20/2/1 12/2/1 16/2/1
f 20/2/1 8/2/1 12/2/1
f 21/1/1 20/1/1 19/1/1
f 22/1/1 20/1/1 21/1/1
f 23/2/2 24/2/2 27/2/2
f 25/2/2 26/2/2 30/2/2
f 27/2/2 28/2/2 31/2/2
f 29/2/2 30/2/2 34/2/2
f 31/2/2 32/2/2 35/2/2
f 33/2/2 34/2/2 38/2/2
f 35/2/2 36/2/2 39/2/2
f 37/2/2 38/2/2 42/2/2
f 39/2/2 40/2/2 43/2/2
f 41/2/2 42/2/2 44/2/2
f 39/2/2 43/2/2 45/2/2
f 43/2/2 44/2/2 45/2/2
f 23/2/2 27/2/2 45/2/2
f 27/2/2 31/2/2 45/2/2
f 31/2/2 35/2/2 45/2/2
f 35/2/2 39/2/2 45/2/2
f 44/2/2 42/2/2 46/2/2
f 45/2/2 44/2/2 46/2/2
f 30/2/2 26/2/2 46/2/2
f 38/2/2 34/2/2 46/2/2
f 42/2/2 38/2/2 46/2/2
f 34/2/2 30/2/2 46/2/2
f 45/1/2 46/1/2 47/1/2
f 47/1/2 46/1/2 48/1/2
f 49/2/2 50/2/2 53/2/2
f 53/2/2 50/2/2 54/2/2
f 51/2/2 52/2/2 57/2/2
f 57/2/2 52/2/2 58/2/2
f 54/1/2 55/1/2 59/1/2
f 59/1/2 55/1/2 60/1/2
f 56/1/2 57/1/2 63/1/2
f 63/1/2 57/1/2 64/1/2
f 60/1/2 61/1/2 65/1/2
f 65/1/2 61/1/2 66/1/2
f 62/1/2 63/1/2 69/1/2
f 69/1/2 63/1/2 70/1/2
f 66/1/2 67/1/2 71/1/2
f 71/1/2 67/1/2 72/1/2
f 68/1/2 69/1/2 75/1/2
f 75/1/2 69/1/2 76/1/2
f 72/1/2 73/1/2 77/1/2
f 77/1/2 73/1/2 78/1/2
f 74/1/2 75/1/2 79/1/2
f 79/1/2 75/1/2 80/1/2
f 78/1/2 79/1/2 81/1/2
f 81/1/2 79/1/2 82/1/2
f 83/2/2 84/2/2 87/2/2
f 87/2/2 84/2/2 88/2/2
f 85/2/2 86/2/2 91/2/2
f 91/2/2 86/2/2 92/2/2
f 88/1/2 89/1/2 93/1/2
f 93/1/2 89/1/2 94/1/2
f 90/1/2 91/1/2 95/1/2
f 95/1/2 91/1/2 96/1/2
f 97/1/2 98/1/2 101/1/2
f 101/1/2 98/1/2 102/1/2
f 99/1/2 100/1/2 103/1/2
f 103/1/2 100/1/2 104/1/2
f 108/2/3 106/2/3 105/2/3
f 109/1/3 107/1/3 106/1/3
f 109/2/3 106/2/3 108/2/3
f 110/1/3 107/1/3 109/1/3
f 111/2/3 108/2/3 105/2/3
f 112/2/3 108/2/3 111/2/3
f 113/2/3 111/2/3 105/2/3
f 114/2/3 111/2/3 113/2/3
f 118/1/3 116/1/3 115/1/3
f 119/1/3 116/1/3 118/1/3
f 121/1/3 118/1/3 117/1/3
f 122/1/3 118/1/3 121/1/3
f 123/1/3 121/1/3 120/1/3
f 124/1/3 121/1/3 123/1/3
f 127/1/3 126/1/3 125/1/3
f 128/1/3 126/1/3 127/1/3
f 131/1/3 130/1/3 129/1/3
f 132/1/3 130/1/3 131/1/3
f 135/1/3 134/1/3 133/1/3
f 136/1/3 134/1/3 135/1/3
f 139/1/3 138/1/3 137/1/3
f 140/1/3 138/1/3 139/1/3
f 143/2/3 142/2/3 141/2/3
f 144/2/3 142/2/3 143/2/3
f 145/1/3 144/1/3 143/1/3
f 146/1/3 144/1/3 145/1/3
f 149/2/3 148/2/3 147/2/3
f 150/2/3 148/2/3 149/2/3
f 151/1/3 150/1/3 149/1/3
f 152/1/3 150/1/3 151/1/3
f 155/2/3 154/2/3 153/2/3
f 156/2/3 154/2/3 155/2/3
f 157/1/3 156/1/3 155/1/3
f 158/1/3 156/1/3 157/1/3
f 161/2/3 160/2/3 159/2/3
f 162/2/3 160/2/3 161/2/3
f 163/2/3 161/2/3 159/2/3
f 164/1/3 162/1/3 161/1/3
f 164/2/3 161/2/3 163/2/3
f 165/1/3 162/1/3 164/1/3
f 166/2/3 163/2/3 159/2/3
f 167/1/3 164/1/3 163/1/3
f 167/2/3 163/2/3 166/2/3
f 168/1/3 164/1/3 167/1/3
f 169/1/3 167/1/3 166/1/3
f 170/1/3 167/1/3 169/1/3
f 171/2/4 172/2/4 173/2/4
f 173/2/4 172/2/4 174/2/4
f 171/2/4 173/2/4 175/2/4
f 173/1/4 174/1/4 176/1/4
f 175/2/4 173/2/4 176/2/4
f 176/1/4 174/1/4 177/1/4
f 171/2/4 175/2/4 178/2/4
f 175/1/4 176/1/4 179/1/4
f 178/2/4 175/2/4 179/2/4
f 179/1/4 176/1/4 180/1/4
f 178/1/4 179/1/4 181/1/4
f 181/1/4 179/1/4 182/1/4
f 183/2/4 184/2/4 185/2/4
f 185/2/4 184/2/4 186/2/4
f 185/1/4 186/1/4 187/1/4
f 187/1/4 186/1/4 188/1/4
f 189/2/4 190/2/4 191/2/4
f 191/2/4 190/2/4 192/2/4
f 191/1/4 192/1/4 193/1/4
f 193/1/4 192/1/4 194/1/4
f 195/2/4 196/2/4 197/2/4
f 197/2/4 196/2/4 198/2/4
f 197/1/4 198/1/4 199/1/4
f 199/1/4 198/1/4 200/1/4
f 201/1/4 202/1/4 203/1/4
f 203/1/4 202/1/4 204/1/4
f 205/1/4 206/1/4 207/1/4
f 207/1/4 206/1/4 208/1/4
f 209/1/4 210/1/4 211/1/4
f 211/1/4 210/1/4 212/1/4
f 213/1/4 214/1/4 215/1/4
f 215/1/4 214/1/4 216/1/4
f 217/1/4 218/1/4 220/1/4
f 220/1/4 218/1/4 221/1/4
f 219/1/4 220/1/4 223/1/4
f 223/1/4 220/1/4 224/1/4
f 222/1/4 223/1/4 225/1/4
f 225/1/4 223/1/4 226/1/4
f 227/2/4 228/2/4 230/2/4
f 228/1/4 229/1/4 231/1/4
f 230/2/4 228/2/4 231/2/4
f 231/1/4 229/1/4 232/1/4
f 227/2/4 230/2/4 233/2/4
f 233/2/4 230/2/4 234/2/4
f 227/2/4 233/2/4 235/2/4
f 235/2/4 233/2/4 236/2/4
f 239/2/5 238/2/5 237/2/5
f 241/2/5 239/2/5 237/2/5
f 242/1/5 240/1/5 239/1/5
f 242/2/5 239/2/5 241/2/5
f 243/1/5 240/1/5 242/1/5
f 247/2/5 245/2/5 244/2/5
f 247/1/5 246/1/5 245/1/5
f 248/1/5 246/1/5 247/1/5
f 249/2/5 247/2/5 244/2/5
f 250/2/5 247/2/5 249/2/5
f 254/2/5 252/2/5 251/2/5
f 255/1/5 253/1/5 252/1/5
f 255/2/5 252/2/5 254/2/5
f 256/1/5 253/1/5 255/1/5
f 260/2/5 258/2/5 257/2/5
f 261/1/5 259/1/5 258/1/5
f 261/2/5 258/2/5 260/2/5
f 262/1/5 259/1/5 261/1/5
f 266/2/5 264/2/5 263/2/5
f 267/1/5 265/1/5 264/1/5
f 267/2/5 264/2/5 266/2/5
f 268/1/5 265/1/5 267/1/5
f 272/2/5 270/2/5 269/2/5
f 273/1/5 271/1/5 270/1/5
f 273/2/5 270/2/5 272/2/5
f 274/1/5 271/1/5 273/1/5
f 278/2/5 276/2/5 275/2/5
f 279/1/5 277/1/5 276/1/5
f 279/2/5 276/2/5 278/2/5
f 280/1/5 277/1/5 279/1/5
f 284/2/5 282/2/5 281/2/5
f 285/1/5 283/1/5 282/1/5
f 285/2/5 282/2/5 284/2/5
f 286/1/5 283/1/5 285/1/5
f 290/2/5 288/2/5 287/2/5
f 291/1/5 289/1/5 288/1/5
f 291/2/5 288/2/5 290/2/5
f 292/1/5 289/1/5 291/1/5
f 293/2/6 294/2/6 295/2/6
f 295/2/6 294/2/6 296/2/6
f 296/1/6 297/1/6 298/1/6
f 298/1/6 297/1/6 299/1/6
f 300/1/6 301/1/6 303/1/6
f 303/1/6 301/1/6 304/1/6
f 302/2/6 303/2/6 305/2/6
f 305/2/6 303/2/6 306/2/6
f 307/2/6 308/2/6 309/2/6
f 309/2/6 308/2/6 310/2/6
f 310/1/6 311/1/6 312/1/6
f 312/1/6 311/1/6 313/1/6
f 314/1/6 315/1/6 317/1/6
f 317/1/6 315/1/6 318/1/6
f 316/2/6 317/2/6 319/2/6
f 319/2/6 317/2/6 320/2/6
f 321/1/6 322/1/6 323/1/6
f 323/1/6 322/1/6 324/1/6
f 325/1/6 326/1/6 327/1/6
f 327/1/6 326/1/6 328/1/6
f 329/1/6 330/1/6 331/1/6
f 331/1/6 330/1/6 332/1/6
f 333/1/6 334/1/6 335/1/6
f 335/1/6 334/1/6 336/1/6
f 337/1/6 338/1/6 339/1/6
f 339/1/6 338/1/6 340/1/6
f 341/1/6 342/1/6 343/1/6
f 343/1/6 342/1/6 344/1/6
f 345/1/6 346/1/6 347/1/6
f 347/1/6 346/1/6 348/1/6
f 349/1/6 350/1/6 351/1/6
f 351/1/6 350/1/6 352/1/6
f 353/1/6 354/1/6 355/1/6
f 355/1/6 354/1/6 356/1/6
f 357/1/6 358/1/6 359/1/6
f 359/1/6 358/1/6 360/1/6
