# MagicaVoxel @ Ephtracy

# group
o 

# material
mtllib Wall Window.mtl
usemtl palette

# normals
vn 0 0 -1
vn 0 0 1
vn -1 0 0
vn 1 0 0
vn 0 -1 0
vn 0 1 0

# texcoords
vt 0.0292969 0.5
vt 0.0449219 0.5

# verts
v -5 0 -5
v 5 0 -5
v -5 0.4 -5
v 5 0.4 -5
v -5 7.6 -5
v 5 7.6 -5
v -5 7.9 -5
v 5 7.9 -5
v -5 8 -5
v 5 8 -5
v -5 7.6 -4.5
v 5 7.6 -4.5
v -5 7.9 -4.5
v 5 7.9 -4.5
v -5 8 -4.5
v 5 8 -4.5
v -5 0 -4.3
v 5 0 -4.3
v -5 0.4 -4.3
v 5 0.4 -4.3
v -5 0 -5
v -5 0.4 -5
v -5 7.6 -5
v -5 7.9 -5
v -5 8 -5
v -5 7.6 -4.5
v -5 7.9 -4.5
v -5 8 -4.5
v -5 0 -4.3
v -5 0.4 -4.3
v 5 0 -5
v 5 0.4 -5
v 5 7.6 -5
v 5 7.9 -5
v 5 8 -5
v 5 7.6 -4.5
v 5 7.9 -4.5
v 5 8 -4.5
v 5 0 -4.3
v 5 0.4 -4.3
v -5 0 -5
v -5 0 -4.3
v 5 0 -5
v 5 0 -4.3
v -5 7.6 -5
v -5 7.6 -4.5
v 5 7.6 -5
v 5 7.6 -4.5
v -5 0.4 -5
v -5 0.4 -4.3
v 5 0.4 -5
v 5 0.4 -4.3
v -5 8 -5
v -5 8 -4.5
v 5 8 -5
v 5 8 -4.5

# faces
f 3/2/1 2/2/1 1/2/1
f 4/2/1 2/2/1 3/2/1
f 7/2/1 6/2/1 5/2/1
f 8/2/1 6/2/1 7/2/1
f 9/1/1 8/1/1 7/1/1
f 10/1/1 8/1/1 9/1/1
f 11/2/2 12/2/2 13/2/2
f 13/2/2 12/2/2 14/2/2
f 13/1/2 14/1/2 15/1/2
f 15/1/2 14/1/2 16/1/2
f 17/2/2 18/2/2 19/2/2
f 19/2/2 18/2/2 20/2/2
f 26/2/3 24/2/3 23/2/3
f 27/1/3 25/1/3 24/1/3
f 27/2/3 24/2/3 26/2/3
f 28/1/3 25/1/3 27/1/3
f 29/2/3 22/2/3 21/2/3
f 30/2/3 22/2/3 29/2/3
f 33/2/4 34/2/4 36/2/4
f 34/1/4 35/1/4 37/1/4
f 36/2/4 34/2/4 37/2/4
f 37/1/4 35/1/4 38/1/4
f 31/2/4 32/2/4 39/2/4
f 39/2/4 32/2/4 40/2/4
f 43/2/5 42/2/5 41/2/5
f 44/2/5 42/2/5 43/2/5
f 47/2/5 46/2/5 45/2/5
f 48/2/5 46/2/5 47/2/5
f 49/2/6 50/2/6 51/2/6
f 51/2/6 50/2/6 52/2/6
f 53/1/6 54/1/6 55/1/6
f 55/1/6 54/1/6 56/1/6
