# MagicaVoxel @ Ephtracy

# group
o 

# material
mtllib Med-1.mtl
usemtl palette

# normals
vn -1 0 0
vn 1 0 0
vn 0 0 1
vn 0 0 -1
vn 0 -1 0
vn 0 1 0

# texcoords
vt 0.00976563 0.5
vt 0.0175781 0.5
vt 0.0488281 0.5
vt 0.388672 0.5

# verts
v -0.6 0 0.4
v -0.6 0 -0.4
v -0.6 0.1 0.4
v -0.6 0.1 -0.4
v -0.6 0.2 0.4
v -0.6 0.2 -0.4
v -0.6 0.3 0.4
v -0.6 0.3 -0.4
v -0.6 0.4 0.4
v -0.6 0.4 -0.4
v -0.6 0.5 0.4
v -0.6 0.5 -0.4
v -0.5 0.1 0.5
v -0.5 0.1 0.4
v -0.5 0.2 0.4
v -0.5 0.3 0.4
v -0.5 0.4 0.5
v -0.5 0.4 0.4
v 0.3 0.1 0.5
v 0.3 0.1 0.4
v 0.3 0.2 0.4
v 0.3 0.3 0.4
v 0.3 0.4 0.5
v 0.3 0.4 0.4
v -0.3 0.1 0.5
v -0.3 0.1 0.4
v -0.3 0.2 0.4
v -0.3 0.3 0.4
v -0.3 0.4 0.5
v -0.3 0.4 0.4
v 0.5 0.1 0.5
v 0.5 0.1 0.4
v 0.5 0.2 0.4
v 0.5 0.3 0.4
v 0.5 0.4 0.5
v 0.5 0.4 0.4
v 0.6 0 0.4
v 0.6 0 -0.4
v 0.6 0.1 0.4
v 0.6 0.1 -0.4
v 0.6 0.2 0.4
v 0.6 0.2 -0.4
v 0.6 0.3 0.4
v 0.6 0.3 -0.4
v 0.6 0.4 0.4
v 0.6 0.4 -0.4
v 0.6 0.5 0.4
v 0.6 0.5 -0.4
v -0.5 0.1 0.5
v -0.5 0.4 0.5
v -0.3 0.1 0.5
v -0.3 0.4 0.5
v 0.3 0.1 0.5
v 0.3 0.4 0.5
v 0.5 0.1 0.5
v 0.5 0.4 0.5
v -0.6 0 0.4
v -0.6 0.1 0.4
v -0.6 0.2 0.4
v -0.6 0.3 0.4
v -0.6 0.4 0.4
v -0.6 0.5 0.4
v -0.5 0.1 0.4
v -0.5 0.2 0.4
v -0.5 0.3 0.4
v -0.5 0.4 0.4
v -0.3 0.1 0.4
v -0.3 0.2 0.4
v -0.3 0.3 0.4
v -0.3 0.4 0.4
v 0.3 0.1 0.4
v 0.3 0.2 0.4
v 0.3 0.3 0.4
v 0.3 0.4 0.4
v 0.5 0.1 0.4
v 0.5 0.2 0.4
v 0.5 0.3 0.4
v 0.5 0.4 0.4
v 0.6 0 0.4
v 0.6 0.1 0.4
v 0.6 0.2 0.4
v 0.6 0.3 0.4
v 0.6 0.4 0.4
v 0.6 0.5 0.4
v -0.6 0 -0.4
v -0.6 0.1 -0.4
v -0.6 0.2 -0.4
v -0.6 0.3 -0.4
v -0.6 0.4 -0.4
v -0.6 0.5 -0.4
v -0.1 0.3 -0.4
v -0.1 0.4 -0.4
v 0.1 0.3 -0.4
v 0.1 0.4 -0.4
v 0.6 0 -0.4
v 0.6 0.1 -0.4
v 0.6 0.2 -0.4
v 0.6 0.3 -0.4
v 0.6 0.4 -0.4
v 0.6 0.5 -0.4
v -0.6 0 0.4
v 0.6 0 0.4
v -0.5 0 0.3
v 0.5 0 0.3
v -0.5 0 -0.3
v 0.5 0 -0.3
v -0.6 0 -0.4
v 0.6 0 -0.4
v -0.5 0.1 0.5
v -0.3 0.1 0.5
v 0.3 0.1 0.5
v 0.5 0.1 0.5
v -0.5 0.1 0.4
v -0.3 0.1 0.4
v 0.3 0.1 0.4
v 0.5 0.1 0.4
v -0.5 0.4 0.5
v -0.3 0.4 0.5
v 0.3 0.4 0.5
v 0.5 0.4 0.5
v -0.5 0.4 0.4
v -0.3 0.4 0.4
v 0.3 0.4 0.4
v 0.5 0.4 0.4
v -0.6 0.5 0.4
v 0.6 0.5 0.4
v -0.5 0.5 0.3
v -0.2 0.5 0.3
v -0.1 0.5 0.3
v 0.1 0.5 0.3
v 0.2 0.5 0.3
v 0.5 0.5 0.3
v -0.4 0.5 0.2
v -0.2 0.5 0.2
v 0.2 0.5 0.2
v 0.4 0.5 0.2
v -0.3 0.5 0.1
v -0.1 0.5 0.1
v 0.1 0.5 0.1
v 0.3 0.5 0.1
v -0.3 0.5 -0.1
v -0.1 0.5 -0.1
v 0.1 0.5 -0.1
v 0.3 0.5 -0.1
v -0.4 0.5 -0.2
v -0.2 0.5 -0.2
v 0.2 0.5 -0.2
v 0.4 0.5 -0.2
v -0.5 0.5 -0.3
v -0.2 0.5 -0.3
v -0.1 0.5 -0.3
v 0.1 0.5 -0.3
v 0.2 0.5 -0.3
v 0.5 0.5 -0.3
v -0.6 0.5 -0.4
v 0.6 0.5 -0.4

# faces
f 3/2/1 2/2/1 1/2/1
f 4/2/1 2/2/1 3/2/1
f 5/3/1 4/3/1 3/3/1
f 6/3/1 4/3/1 5/3/1
f 7/2/1 6/2/1 5/2/1
f 8/2/1 6/2/1 7/2/1
f 9/3/1 8/3/1 7/3/1
f 10/3/1 8/3/1 9/3/1
f 11/2/1 10/2/1 9/2/1
f 12/2/1 10/2/1 11/2/1
f 15/1/1 14/1/1 13/1/1
f 16/1/1 15/1/1 13/1/1
f 17/1/1 16/1/1 13/1/1
f 18/1/1 16/1/1 17/1/1
f 21/1/1 20/1/1 19/1/1
f 22/1/1 21/1/1 19/1/1
f 23/1/1 22/1/1 19/1/1
f 24/1/1 22/1/1 23/1/1
f 25/1/2 26/1/2 27/1/2
f 25/1/2 27/1/2 28/1/2
f 25/1/2 28/1/2 29/1/2
f 29/1/2 28/1/2 30/1/2
f 31/1/2 32/1/2 33/1/2
f 31/1/2 33/1/2 34/1/2
f 31/1/2 34/1/2 35/1/2
f 35/1/2 34/1/2 36/1/2
f 37/2/2 38/2/2 39/2/2
f 39/2/2 38/2/2 40/2/2
f 39/3/2 40/3/2 41/3/2
f 41/3/2 40/3/2 42/3/2
f 41/2/2 42/2/2 43/2/2
f 43/2/2 42/2/2 44/2/2
f 43/3/2 44/3/2 45/3/2
f 45/3/2 44/3/2 46/3/2
f 45/2/2 46/2/2 47/2/2
f 47/2/2 46/2/2 48/2/2
f 51/1/3 50/1/3 49/1/3
f 52/1/3 50/1/3 51/1/3
f 55/1/3 54/1/3 53/1/3
f 56/1/3 54/1/3 55/1/3
f 63/2/3 58/2/3 57/2/3
f 63/3/3 59/3/3 58/3/3
f 64/2/3 60/2/3 59/2/3
f 64/3/3 59/3/3 63/3/3
f 65/3/3 61/3/3 60/3/3
f 65/2/3 60/2/3 64/2/3
f 66/2/3 62/2/3 61/2/3
f 66/3/3 61/3/3 65/3/3
f 67/2/3 63/2/3 57/2/3
f 70/2/3 62/2/3 66/2/3
f 71/2/3 67/2/3 57/2/3
f 71/3/3 68/3/3 67/3/3
f 72/2/3 69/2/3 68/2/3
f 72/3/3 68/3/3 71/3/3
f 73/3/3 70/3/3 69/3/3
f 73/2/3 69/2/3 72/2/3
f 74/2/3 62/2/3 70/2/3
f 74/3/3 70/3/3 73/3/3
f 75/2/3 71/2/3 57/2/3
f 78/2/3 62/2/3 74/2/3
f 79/2/3 75/2/3 57/2/3
f 80/3/3 76/3/3 75/3/3
f 80/2/3 75/2/3 79/2/3
f 81/2/3 77/2/3 76/2/3
f 81/3/3 76/3/3 80/3/3
f 82/3/3 78/3/3 77/3/3
f 82/2/3 77/2/3 81/2/3
f 83/2/3 62/2/3 78/2/3
f 83/3/3 78/3/3 82/3/3
f 84/2/3 62/2/3 83/2/3
f 87/2/4 88/2/4 91/2/4
f 88/3/4 89/3/4 91/3/4
f 89/2/4 90/2/4 92/2/4
f 91/3/4 89/3/4 92/3/4
f 87/2/4 91/2/4 93/2/4
f 91/2/4 92/2/4 93/2/4
f 92/2/4 90/2/4 94/2/4
f 93/2/4 92/2/4 94/2/4
f 85/2/4 86/2/4 95/2/4
f 86/3/4 87/3/4 96/3/4
f 95/2/4 86/2/4 96/2/4
f 87/2/4 93/2/4 97/2/4
f 96/3/4 87/3/4 97/3/4
f 93/3/4 94/3/4 98/3/4
f 97/2/4 93/2/4 98/2/4
f 94/2/4 90/2/4 99/2/4
f 98/3/4 94/3/4 99/3/4
f 99/2/4 90/2/4 100/2/4
f 103/2/5 102/2/5 101/2/5
f 104/2/5 102/2/5 103/2/5
f 105/2/5 103/2/5 101/2/5
f 105/3/5 104/3/5 103/3/5
f 106/2/5 102/2/5 104/2/5
f 106/3/5 104/3/5 105/3/5
f 107/2/5 105/2/5 101/2/5
f 107/2/5 106/2/5 105/2/5
f 108/2/5 102/2/5 106/2/5
f 108/2/5 106/2/5 107/2/5
f 113/1/5 110/1/5 109/1/5
f 114/1/5 110/1/5 113/1/5
f 115/1/5 112/1/5 111/1/5
f 116/1/5 112/1/5 115/1/5
f 117/1/6 118/1/6 121/1/6
f 121/1/6 118/1/6 122/1/6
f 119/1/6 120/1/6 123/1/6
f 123/1/6 120/1/6 124/1/6
f 125/2/6 126/2/6 127/2/6
f 127/2/6 126/2/6 128/2/6
f 128/2/6 126/2/6 129/2/6
f 129/2/6 126/2/6 130/2/6
f 130/2/6 126/2/6 131/2/6
f 131/2/6 126/2/6 132/2/6
f 127/3/6 128/3/6 133/3/6
f 128/2/6 129/2/6 134/2/6
f 133/3/6 128/3/6 134/3/6
f 130/2/6 131/2/6 135/2/6
f 131/3/6 132/3/6 135/3/6
f 135/3/6 132/3/6 136/3/6
f 133/2/6 134/2/6 137/2/6
f 129/4/6 130/4/6 138/4/6
f 137/2/6 134/2/6 138/2/6
f 134/2/6 129/2/6 138/2/6
f 135/2/6 136/2/6 139/2/6
f 138/4/6 130/4/6 139/4/6
f 130/2/6 135/2/6 139/2/6
f 139/2/6 136/2/6 140/2/6
f 133/2/6 137/2/6 141/2/6
f 137/4/6 138/4/6 141/4/6
f 139/4/6 140/4/6 141/4/6
f 138/4/6 139/4/6 141/4/6
f 141/4/6 140/4/6 142/4/6
f 142/4/6 140/4/6 143/4/6
f 140/2/6 136/2/6 144/2/6
f 143/4/6 140/4/6 144/4/6
f 127/3/6 133/3/6 145/3/6
f 133/2/6 141/2/6 145/2/6
f 141/2/6 142/2/6 145/2/6
f 145/2/6 142/2/6 146/2/6
f 143/2/6 144/2/6 147/2/6
f 144/2/6 136/2/6 148/2/6
f 147/2/6 144/2/6 148/2/6
f 136/3/6 132/3/6 148/3/6
f 125/2/6 127/2/6 149/2/6
f 145/3/6 146/3/6 149/3/6
f 127/3/6 145/3/6 149/3/6
f 146/2/6 142/2/6 150/2/6
f 149/3/6 146/3/6 150/3/6
f 142/4/6 143/4/6 151/4/6
f 150/2/6 142/2/6 151/2/6
f 143/2/6 147/2/6 152/2/6
f 151/4/6 143/4/6 152/4/6
f 147/3/6 148/3/6 153/3/6
f 152/2/6 147/2/6 153/2/6
f 148/3/6 132/3/6 154/3/6
f 153/3/6 148/3/6 154/3/6
f 132/2/6 126/2/6 154/2/6
f 152/2/6 153/2/6 155/2/6
f 125/2/6 149/2/6 155/2/6
f 153/2/6 154/2/6 155/2/6
f 151/2/6 152/2/6 155/2/6
f 149/2/6 150/2/6 155/2/6
f 150/2/6 151/2/6 155/2/6
f 154/2/6 126/2/6 156/2/6
f 155/2/6 154/2/6 156/2/6
