# MagicaVoxel @ Ephtracy

# group
o 

# material
mtllib Corner 2.mtl
usemtl palette

# normals
vn 0 0 -1
vn 0 0 1
vn -1 0 0
vn 1 0 0
vn 0 -1 0
vn 0 1 0

# texcoords
vt 0.0175781 0.5
vt 0.0292969 0.5
vt 0.0449219 0.5

# verts
v -5 0 -5
v -4.5 0 -5
v -2.6 0 -5
v -2.5 0 -5
v 2.5 0 -5
v 2.6 0 -5
v 5 0 -5
v -4.5 0.1 -5
v -4.3 0.1 -5
v -2.6 0.1 -5
v -2.5 0.1 -5
v 2.5 0.1 -5
v 2.6 0.1 -5
v 5 0.1 -5
v -4.4 2.4 -5
v -4.3 2.4 -5
v -4.5 2.5 -5
v -4.4 2.5 -5
v -5 7.9 -5
v -4.5 7.9 -5
v -5 8 -5
v -4.5 8 -5
v -5 2.5 -4.5
v -4.5 2.5 -4.5
v -5 7.9 -4.5
v -4.5 7.9 -4.5
v -5 8 -4.5
v -4.5 8 -4.5
v -5 2.4 -4.4
v -4.4 2.4 -4.4
v -5 2.5 -4.4
v -4.4 2.5 -4.4
v -5 0.1 -4.3
v -4.3 0.1 -4.3
v -5 2.4 -4.3
v -4.3 2.4 -4.3
v -5 0 5
v -2.6 0 5
v -2.5 0 5
v 2.5 0 5
v 2.6 0 5
v 5 0 5
v -5 0.1 5
v -2.6 0.1 5
v -2.5 0.1 5
v 2.5 0.1 5
v 2.6 0.1 5
v 5 0.1 5
v -5 0 -5
v -5 7.9 -5
v -5 8 -5
v -5 2.5 -4.5
v -5 7.9 -4.5
v -5 8 -4.5
v -5 2.4 -4.4
v -5 2.5 -4.4
v -5 0 -4.3
v -5 0.1 -4.3
v -5 2.4 -4.3
v -5 0 -2.6
v -5 0.1 -2.6
v -5 0 -2.5
v -5 0.1 -2.5
v -5 0 2.5
v -5 0.1 2.5
v -5 0 2.6
v -5 0.1 2.6
v -5 0 5
v -5 0.1 5
v -4.5 2.5 -5
v -4.5 7.9 -5
v -4.5 8 -5
v -4.5 2.5 -4.5
v -4.5 7.9 -4.5
v -4.5 8 -4.5
v -4.4 2.4 -5
v -4.4 2.5 -5
v -4.4 2.4 -4.4
v -4.4 2.5 -4.4
v -4.3 0.1 -5
v -4.3 2.4 -5
v -4.3 0.1 -4.3
v -4.3 2.4 -4.3
v 5 0 -5
v 5 0.1 -5
v 5 0 -2.6
v 5 0.1 -2.6
v 5 0 -2.5
v 5 0.1 -2.5
v 5 0 2.5
v 5 0.1 2.5
v 5 0 2.6
v 5 0.1 2.6
v 5 0 5
v 5 0.1 5
v -5 0 -5
v -5 0 -4.3
v -5 0 -2.6
v -5 0 -2.5
v -5 0 2.5
v -5 0 2.6
v -5 0 5
v -4.5 0 -5
v -4.5 0 -4.3
v -2.6 0 -5
v -2.6 0 -2.6
v -2.6 0 2.6
v -2.6 0 5
v -2.5 0 -5
v -2.5 0 -2.5
v -2.5 0 -2.2
v -2.5 0 2.2
v -2.5 0 2.5
v -2.5 0 5
v -2.2 0 -2.5
v -2.2 0 -2.2
v -2.2 0 2.2
v -2.2 0 2.5
v 2.2 0 -2.5
v 2.2 0 -2.2
v 2.2 0 2.2
v 2.2 0 2.5
v 2.5 0 -5
v 2.5 0 -2.5
v 2.5 0 -2.2
v 2.5 0 2.2
v 2.5 0 2.5
v 2.5 0 5
v 2.6 0 -5
v 2.6 0 -2.6
v 2.6 0 2.6
v 2.6 0 5
v 5 0 -5
v 5 0 -2.6
v 5 0 -2.5
v 5 0 2.5
v 5 0 2.6
v 5 0 5
v -5 0.1 -4.3
v -5 0.1 -2.6
v -5 0.1 -2.5
v -5 0.1 2.5
v -5 0.1 2.6
v -5 0.1 5
v -4.3 0.1 -5
v -4.3 0.1 -4.3
v -2.6 0.1 -5
v -2.6 0.1 -2.6
v -2.6 0.1 2.6
v -2.6 0.1 5
v -2.5 0.1 -5
v -2.5 0.1 -2.5
v -2.5 0.1 -2.2
v -2.5 0.1 2.2
v -2.5 0.1 2.5
v -2.5 0.1 5
v -2.2 0.1 -2.5
v -2.2 0.1 -2.2
v -2.2 0.1 2.2
v -2.2 0.1 2.5
v 2.2 0.1 -2.5
v 2.2 0.1 -2.2
v 2.2 0.1 2.2
v 2.2 0.1 2.5
v 2.5 0.1 -5
v 2.5 0.1 -2.5
v 2.5 0.1 -2.2
v 2.5 0.1 2.2
v 2.5 0.1 2.5
v 2.5 0.1 5
v 2.6 0.1 -5
v 2.6 0.1 -2.6
v 2.6 0.1 2.6
v 2.6 0.1 5
v 5 0.1 -5
v 5 0.1 -2.6
v 5 0.1 -2.5
v 5 0.1 2.5
v 5 0.1 2.6
v 5 0.1 5
v -5 2.4 -4.4
v -5 2.4 -4.3
v -4.4 2.4 -5
v -4.4 2.4 -4.4
v -4.3 2.4 -5
v -4.3 2.4 -4.3
v -5 2.5 -4.5
v -5 2.5 -4.4
v -4.5 2.5 -5
v -4.5 2.5 -4.5
v -4.4 2.5 -5
v -4.4 2.5 -4.4
v -5 8 -5
v -5 8 -4.5
v -4.5 8 -5
v -4.5 8 -4.5

# faces
f 8/3/1 2/3/1 1/3/1
f 8/1/1 3/1/1 2/1/1
f 9/1/1 3/1/1 8/1/1
f 10/2/1 4/2/1 3/2/1
f 10/1/1 3/1/1 9/1/1
f 11/1/1 5/1/1 4/1/1
f 11/2/1 4/2/1 10/2/1
f 12/2/1 6/2/1 5/2/1
f 12/1/1 5/1/1 11/1/1
f 13/1/1 7/1/1 6/1/1
f 13/2/1 6/2/1 12/2/1
f 14/1/1 7/1/1 13/1/1
f 15/3/1 9/3/1 8/3/1
f 16/3/1 9/3/1 15/3/1
f 17/3/1 8/3/1 1/3/1
f 17/3/1 15/3/1 8/3/1
f 18/3/1 15/3/1 17/3/1
f 19/3/1 17/3/1 1/3/1
f 20/3/1 17/3/1 19/3/1
f 21/2/1 20/2/1 19/2/1
f 22/2/1 20/2/1 21/2/1
f 23/3/2 24/3/2 25/3/2
f 25/3/2 24/3/2 26/3/2
f 25/2/2 26/2/2 27/2/2
f 27/2/2 26/2/2 28/2/2
f 29/3/2 30/3/2 31/3/2
f 31/3/2 30/3/2 32/3/2
f 33/3/2 34/3/2 35/3/2
f 35/3/2 34/3/2 36/3/2
f 37/1/2 38/1/2 43/1/2
f 38/2/2 39/2/2 44/2/2
f 43/1/2 38/1/2 44/1/2
f 39/1/2 40/1/2 45/1/2
f 44/2/2 39/2/2 45/2/2
f 40/2/2 41/2/2 46/2/2
f 45/1/2 40/1/2 46/1/2
f 41/1/2 42/1/2 47/1/2
f 46/2/2 41/2/2 47/2/2
f 47/1/2 42/1/2 48/1/2
f 52/3/3 50/3/3 49/3/3
f 53/2/3 51/2/3 50/2/3
f 53/3/3 50/3/3 52/3/3
f 54/2/3 51/2/3 53/2/3
f 55/3/3 52/3/3 49/3/3
f 56/3/3 52/3/3 55/3/3
f 57/3/3 55/3/3 49/3/3
f 58/3/3 55/3/3 57/3/3
f 59/3/3 55/3/3 58/3/3
f 60/1/3 58/1/3 57/1/3
f 61/1/3 58/1/3 60/1/3
f 62/2/3 61/2/3 60/2/3
f 63/2/3 61/2/3 62/2/3
f 64/1/3 63/1/3 62/1/3
f 65/1/3 63/1/3 64/1/3
f 66/2/3 65/2/3 64/2/3
f 67/2/3 65/2/3 66/2/3
f 68/1/3 67/1/3 66/1/3
f 69/1/3 67/1/3 68/1/3
f 70/3/4 71/3/4 73/3/4
f 71/2/4 72/2/4 74/2/4
f 73/3/4 71/3/4 74/3/4
f 74/2/4 72/2/4 75/2/4
f 76/3/4 77/3/4 78/3/4
f 78/3/4 77/3/4 79/3/4
f 80/3/4 81/3/4 82/3/4
f 82/3/4 81/3/4 83/3/4
f 84/1/4 85/1/4 86/1/4
f 86/1/4 85/1/4 87/1/4
f 86/2/4 87/2/4 88/2/4
f 88/2/4 87/2/4 89/2/4
f 88/1/4 89/1/4 90/1/4
f 90/1/4 89/1/4 91/1/4
f 90/2/4 91/2/4 92/2/4
f 92/2/4 91/2/4 93/2/4
f 92/1/4 93/1/4 94/1/4
f 94/1/4 93/1/4 95/1/4
f 103/3/5 97/3/5 96/3/5
f 104/1/5 98/1/5 97/1/5
f 104/3/5 97/3/5 103/3/5
f 105/1/5 104/1/5 103/1/5
f 106/2/5 99/2/5 98/2/5
f 106/1/5 104/1/5 105/1/5
f 106/1/5 98/1/5 104/1/5
f 107/1/5 102/1/5 101/1/5
f 107/2/5 101/2/5 100/2/5
f 108/1/5 102/1/5 107/1/5
f 109/2/5 106/2/5 105/2/5
f 110/2/5 99/2/5 106/2/5
f 110/2/5 106/2/5 109/2/5
f 110/1/5 100/1/5 99/1/5
f 111/1/5 100/1/5 110/1/5
f 112/1/5 100/1/5 111/1/5
f 113/2/5 108/2/5 107/2/5
f 113/1/5 100/1/5 112/1/5
f 113/2/5 107/2/5 100/2/5
f 114/2/5 108/2/5 113/2/5
f 115/2/5 111/2/5 110/2/5
f 115/1/5 110/1/5 109/1/5
f 116/1/5 112/1/5 111/1/5
f 116/2/5 111/2/5 115/2/5
f 117/2/5 113/2/5 112/2/5
f 117/1/5 112/1/5 116/1/5
f 118/1/5 114/1/5 113/1/5
f 118/2/5 113/2/5 117/2/5
f 119/1/5 115/1/5 109/1/5
f 119/1/5 117/1/5 116/1/5
f 119/1/5 118/1/5 117/1/5
f 119/1/5 116/1/5 115/1/5
f 120/1/5 118/1/5 119/1/5
f 121/1/5 118/1/5 120/1/5
f 122/1/5 114/1/5 118/1/5
f 122/1/5 118/1/5 121/1/5
f 123/1/5 119/1/5 109/1/5
f 124/2/5 120/2/5 119/2/5
f 124/1/5 119/1/5 123/1/5
f 125/1/5 121/1/5 120/1/5
f 125/2/5 120/2/5 124/2/5
f 126/2/5 122/2/5 121/2/5
f 126/1/5 121/1/5 125/1/5
f 127/1/5 114/1/5 122/1/5
f 127/2/5 122/2/5 126/2/5
f 128/1/5 114/1/5 127/1/5
f 129/2/5 124/2/5 123/2/5
f 130/2/5 124/2/5 129/2/5
f 131/2/5 128/2/5 127/2/5
f 132/2/5 128/2/5 131/2/5
f 133/1/5 130/1/5 129/1/5
f 134/2/5 124/2/5 130/2/5
f 134/1/5 130/1/5 133/1/5
f 135/1/5 126/1/5 125/1/5
f 135/2/5 124/2/5 134/2/5
f 135/1/5 125/1/5 124/1/5
f 135/1/5 127/1/5 126/1/5
f 136/2/5 131/2/5 127/2/5
f 136/1/5 127/1/5 135/1/5
f 137/1/5 132/1/5 131/1/5
f 137/2/5 131/2/5 136/2/5
f 138/1/5 132/1/5 137/1/5
f 139/1/6 140/1/6 146/1/6
f 145/1/6 146/1/6 147/1/6
f 140/2/6 141/2/6 148/2/6
f 147/1/6 146/1/6 148/1/6
f 146/1/6 140/1/6 148/1/6
f 143/1/6 144/1/6 149/1/6
f 142/2/6 143/2/6 149/2/6
f 149/1/6 144/1/6 150/1/6
f 147/2/6 148/2/6 151/2/6
f 148/2/6 141/2/6 152/2/6
f 151/2/6 148/2/6 152/2/6
f 141/1/6 142/1/6 152/1/6
f 152/1/6 142/1/6 153/1/6
f 153/1/6 142/1/6 154/1/6
f 149/2/6 150/2/6 155/2/6
f 154/1/6 142/1/6 155/1/6
f 142/2/6 149/2/6 155/2/6
f 155/2/6 150/2/6 156/2/6
f 152/2/6 153/2/6 157/2/6
f 151/1/6 152/1/6 157/1/6
f 153/1/6 154/1/6 158/1/6
f 157/2/6 153/2/6 158/2/6
f 154/2/6 155/2/6 159/2/6
f 158/1/6 154/1/6 159/1/6
f 155/1/6 156/1/6 160/1/6
f 159/2/6 155/2/6 160/2/6
f 151/1/6 157/1/6 161/1/6
f 158/1/6 159/1/6 161/1/6
f 159/1/6 160/1/6 161/1/6
f 157/1/6 158/1/6 161/1/6
f 161/1/6 160/1/6 162/1/6
f 162/1/6 160/1/6 163/1/6
f 160/1/6 156/1/6 164/1/6
f 163/1/6 160/1/6 164/1/6
f 151/1/6 161/1/6 165/1/6
f 161/2/6 162/2/6 166/2/6
f 165/1/6 161/1/6 166/1/6
f 162/1/6 163/1/6 167/1/6
f 166/2/6 162/2/6 167/2/6
f 163/2/6 164/2/6 168/2/6
f 167/1/6 163/1/6 168/1/6
f 164/1/6 156/1/6 169/1/6
f 168/2/6 164/2/6 169/2/6
f 169/1/6 156/1/6 170/1/6
f 165/2/6 166/2/6 171/2/6
f 171/2/6 166/2/6 172/2/6
f 169/2/6 170/2/6 173/2/6
f 173/2/6 170/2/6 174/2/6
f 171/1/6 172/1/6 175/1/6
f 172/2/6 166/2/6 176/2/6
f 175/1/6 172/1/6 176/1/6
f 167/1/6 168/1/6 177/1/6
f 176/2/6 166/2/6 177/2/6
f 166/1/6 167/1/6 177/1/6
f 168/1/6 169/1/6 177/1/6
f 169/2/6 173/2/6 178/2/6
f 177/1/6 169/1/6 178/1/6
f 173/1/6 174/1/6 179/1/6
f 178/2/6 173/2/6 179/2/6
f 179/1/6 174/1/6 180/1/6
f 181/3/6 182/3/6 184/3/6
f 183/3/6 184/3/6 185/3/6
f 184/3/6 182/3/6 186/3/6
f 185/3/6 184/3/6 186/3/6
f 187/3/6 188/3/6 190/3/6
f 189/3/6 190/3/6 191/3/6
f 190/3/6 188/3/6 192/3/6
f 191/3/6 190/3/6 192/3/6
f 193/2/6 194/2/6 195/2/6
f 195/2/6 194/2/6 196/2/6
