# MagicaVoxel @ Ephtracy

# group
o 

# material
mtllib Door.mtl
usemtl palette

# normals
vn 0 0 -1
vn 0 0 1
vn -1 0 0
vn 1 0 0
vn 0 -1 0
vn 0 1 0

# texcoords
vt 0.0175781 0.5
vt 0.0292969 0.5
vt 0.0449219 0.5

# verts
v -5 0 -5
v -1.8 0 -5
v 1.8 0 -5
v 5 0 -5
v -1.8 0.1 -5
v 1.8 0.1 -5
v -1.8 6.7 -5
v -1.7 6.7 -5
v 1.7 6.7 -5
v 1.8 6.7 -5
v -1.7 6.8 -5
v -1.6 6.8 -5
v 1.6 6.8 -5
v 1.7 6.8 -5
v -1.6 6.9 -5
v -1.5 6.9 -5
v 1.5 6.9 -5
v 1.6 6.9 -5
v -1.5 7 -5
v 1.5 7 -5
v -5 8 -5
v 5 8 -5
v -5 2.5 -4.5
v -2.6 2.5 -4.5
v -2.5 2.5 -4.5
v -1.9 2.5 -4.5
v 1.9 2.5 -4.5
v 2.5 2.5 -4.5
v 2.6 2.5 -4.5
v 5 2.5 -4.5
v -1.9 6.7 -4.5
v -1.8 6.7 -4.5
v 1.8 6.7 -4.5
v 1.9 6.7 -4.5
v -1.8 6.8 -4.5
v -1.7 6.8 -4.5
v 1.7 6.8 -4.5
v 1.8 6.8 -4.5
v -1.7 6.9 -4.5
v -1.6 6.9 -4.5
v 1.6 6.9 -4.5
v 1.7 6.9 -4.5
v -1.6 7 -4.5
v -1.5 7 -4.5
v 1.5 7 -4.5
v 1.6 7 -4.5
v -1.5 7.1 -4.5
v 1.5 7.1 -4.5
v -5 7.9 -4.5
v -2.6 7.9 -4.5
v -2.5 7.9 -4.5
v 2.5 7.9 -4.5
v 2.6 7.9 -4.5
v 5 7.9 -4.5
v -5 8 -4.5
v -2.6 8 -4.5
v -2.5 8 -4.5
v 2.5 8 -4.5
v 2.6 8 -4.5
v 5 8 -4.5
v -5 2.4 -4.4
v -2.6 2.4 -4.4
v -2.5 2.4 -4.4
v -1.9 2.4 -4.4
v 1.9 2.4 -4.4
v 2.5 2.4 -4.4
v 2.6 2.4 -4.4
v 5 2.4 -4.4
v -5 2.5 -4.4
v -2.6 2.5 -4.4
v -2.5 2.5 -4.4
v -1.9 2.5 -4.4
v -1.8 2.5 -4.4
v 1.8 2.5 -4.4
v 1.9 2.5 -4.4
v 2.5 2.5 -4.4
v 2.6 2.5 -4.4
v 5 2.5 -4.4
v -1.9 6.7 -4.4
v -1.8 6.7 -4.4
v -1.7 6.7 -4.4
v 1.7 6.7 -4.4
v 1.8 6.7 -4.4
v 1.9 6.7 -4.4
v -1.8 6.8 -4.4
v -1.7 6.8 -4.4
v -1.6 6.8 -4.4
v 1.6 6.8 -4.4
v 1.7 6.8 -4.4
v 1.8 6.8 -4.4
v -1.7 6.9 -4.4
v -1.6 6.9 -4.4
v -1.5 6.9 -4.4
v 1.5 6.9 -4.4
v 1.6 6.9 -4.4
v 1.7 6.9 -4.4
v -1.6 7 -4.4
v -1.5 7 -4.4
v 1.5 7 -4.4
v 1.6 7 -4.4
v -1.5 7.1 -4.4
v 1.5 7.1 -4.4
v -2.6 8 -4.4
v -2.5 8 -4.4
v 2.5 8 -4.4
v 2.6 8 -4.4
v -5 0.1 -4.3
v -2.6 0.1 -4.3
v -2.5 0.1 -4.3
v -1.9 0.1 -4.3
v 1.9 0.1 -4.3
v 2.5 0.1 -4.3
v 2.6 0.1 -4.3
v 5 0.1 -4.3
v -5 2.4 -4.3
v -2.6 2.4 -4.3
v -2.5 2.4 -4.3
v -1.9 2.4 -4.3
v -1.8 2.4 -4.3
v 1.8 2.4 -4.3
v 1.9 2.4 -4.3
v 2.5 2.4 -4.3
v 2.6 2.4 -4.3
v 5 2.4 -4.3
v -2.6 2.5 -4.3
v -2.5 2.5 -4.3
v -1.9 2.5 -4.3
v -1.8 2.5 -4.3
v 1.8 2.5 -4.3
v 1.9 2.5 -4.3
v 2.5 2.5 -4.3
v 2.6 2.5 -4.3
v -2.6 0.1 -4.2
v -2.5 0.1 -4.2
v -1.9 0.1 -4.2
v -1.8 0.1 -4.2
v 1.8 0.1 -4.2
v 1.9 0.1 -4.2
v 2.5 0.1 -4.2
v 2.6 0.1 -4.2
v -2.6 2.4 -4.2
v -2.5 2.4 -4.2
v -1.9 2.4 -4.2
v -1.8 2.4 -4.2
v 1.8 2.4 -4.2
v 1.9 2.4 -4.2
v 2.5 2.4 -4.2
v 2.6 2.4 -4.2
v -5 0 5
v -2.6 0 5
v -2.5 0 5
v 2.5 0 5
v 2.6 0 5
v 5 0 5
v -5 0.1 5
v -2.6 0.1 5
v -2.5 0.1 5
v 2.5 0.1 5
v 2.6 0.1 5
v 5 0.1 5
v -5 0 -5
v -5 8 -5
v -5 0 -4.9
v -5 7.9 -4.9
v -5 2.5 -4.5
v -5 7.9 -4.5
v -5 8 -4.5
v -5 2.4 -4.4
v -5 2.5 -4.4
v -5 0 -4.3
v -5 0.1 -4.3
v -5 2.4 -4.3
v -5 0 -2.6
v -5 0.1 -2.6
v -5 0 -2.5
v -5 0.1 -2.5
v -5 0 2.5
v -5 0.1 2.5
v -5 0 2.6
v -5 0.1 2.6
v -5 0 5
v -5 0.1 5
v -2.6 2.5 -4.5
v -2.6 7.9 -4.5
v -2.6 8 -4.5
v -2.6 2.4 -4.4
v -2.6 2.5 -4.4
v -2.6 8 -4.4
v -2.6 0.1 -4.3
v -2.6 2.4 -4.3
v -2.6 2.5 -4.3
v -2.6 0.1 -4.2
v -2.6 2.4 -4.2
v -1.9 2.5 -4.5
v -1.9 6.7 -4.5
v -1.9 2.4 -4.4
v -1.9 2.5 -4.4
v -1.9 6.7 -4.4
v -1.9 0.1 -4.3
v -1.9 2.4 -4.3
v -1.9 2.5 -4.3
v -1.9 0.1 -4.2
v -1.9 2.4 -4.2
v -1.8 6.7 -4.5
v -1.8 6.8 -4.5
v -1.8 6.7 -4.4
v -1.8 6.8 -4.4
v -1.7 6.8 -4.5
v -1.7 6.9 -4.5
v -1.7 6.8 -4.4
v -1.7 6.9 -4.4
v -1.6 6.9 -4.5
v -1.6 7 -4.5
v -1.6 6.9 -4.4
v -1.6 7 -4.4
v -1.5 7 -4.5
v -1.5 7.1 -4.5
v -1.5 7 -4.4
v -1.5 7.1 -4.4
v 1.5 6.9 -5
v 1.5 7 -5
v 1.5 6.9 -4.9
v 1.5 7 -4.9
v 1.5 6.9 -4.5
v 1.5 7 -4.5
v 1.5 6.9 -4.4
v 1.5 7 -4.4
v 1.6 6.8 -5
v 1.6 6.9 -5
v 1.6 6.8 -4.9
v 1.6 6.9 -4.9
v 1.6 6.8 -4.5
v 1.6 6.9 -4.5
v 1.6 6.8 -4.4
v 1.6 6.9 -4.4
v 1.7 6.7 -5
v 1.7 6.8 -5
v 1.7 6.7 -4.9
v 1.7 6.8 -4.9
v 1.7 6.7 -4.5
v 1.7 6.8 -4.5
v 1.7 6.7 -4.4
v 1.7 6.8 -4.4
v 1.8 0.1 -5
v 1.8 6.7 -5
v 1.8 0.1 -4.9
v 1.8 6.7 -4.9
v 1.8 2.5 -4.5
v 1.8 6.7 -4.5
v 1.8 2.4 -4.4
v 1.8 2.5 -4.4
v 1.8 6.7 -4.4
v 1.8 0.1 -4.3
v 1.8 2.4 -4.3
v 1.8 2.5 -4.3
v 1.8 0.1 -4.2
v 1.8 2.4 -4.2
v 2.5 2.5 -4.5
v 2.5 7.9 -4.5
v 2.5 8 -4.5
v 2.5 2.4 -4.4
v 2.5 2.5 -4.4
v 2.5 8 -4.4
v 2.5 0.1 -4.3
v 2.5 2.4 -4.3
v 2.5 2.5 -4.3
v 2.5 0.1 -4.2
v 2.5 2.4 -4.2
v -2.5 2.5 -4.5
v -2.5 7.9 -4.5
v -2.5 8 -4.5
v -2.5 2.4 -4.4
v -2.5 2.5 -4.4
v -2.5 8 -4.4
v -2.5 0.1 -4.3
v -2.5 2.4 -4.3
v -2.5 2.5 -4.3
v -2.5 0.1 -4.2
v -2.5 2.4 -4.2
v -1.8 0.1 -5
v -1.8 6.7 -5
v -1.8 0.1 -4.9
v -1.8 6.7 -4.9
v -1.8 2.5 -4.5
v -1.8 6.7 -4.5
v -1.8 2.4 -4.4
v -1.8 2.5 -4.4
v -1.8 6.7 -4.4
v -1.8 0.1 -4.3
v -1.8 2.4 -4.3
v -1.8 2.5 -4.3
v -1.8 0.1 -4.2
v -1.8 2.4 -4.2
v -1.7 6.7 -5
v -1.7 6.8 -5
v -1.7 6.7 -4.9
v -1.7 6.8 -4.9
v -1.7 6.7 -4.5
v -1.7 6.8 -4.5
v -1.7 6.7 -4.4
v -1.7 6.8 -4.4
v -1.6 6.8 -5
v -1.6 6.9 -5
v -1.6 6.8 -4.9
v -1.6 6.9 -4.9
v -1.6 6.8 -4.5
v -1.6 6.9 -4.5
v -1.6 6.8 -4.4
v -1.6 6.9 -4.4
v -1.5 6.9 -5
v -1.5 7 -5
v -1.5 6.9 -4.9
v -1.5 7 -4.9
v -1.5 6.9 -4.5
v -1.5 7 -4.5
v -1.5 6.9 -4.4
v -1.5 7 -4.4
v 1.5 7 -4.5
v 1.5 7.1 -4.5
v 1.5 7 -4.4
v 1.5 7.1 -4.4
v 1.6 6.9 -4.5
v 1.6 7 -4.5
v 1.6 6.9 -4.4
v 1.6 7 -4.4
v 1.7 6.8 -4.5
v 1.7 6.9 -4.5
v 1.7 6.8 -4.4
v 1.7 6.9 -4.4
v 1.8 6.7 -4.5
v 1.8 6.8 -4.5
v 1.8 6.7 -4.4
v 1.8 6.8 -4.4
v 1.9 2.5 -4.5
v 1.9 6.7 -4.5
v 1.9 2.4 -4.4
v 1.9 2.5 -4.4
v 1.9 6.7 -4.4
v 1.9 0.1 -4.3
v 1.9 2.4 -4.3
v 1.9 2.5 -4.3
v 1.9 0.1 -4.2
v 1.9 2.4 -4.2
v 2.6 2.5 -4.5
v 2.6 7.9 -4.5
v 2.6 8 -4.5
v 2.6 2.4 -4.4
v 2.6 2.5 -4.4
v 2.6 8 -4.4
v 2.6 0.1 -4.3
v 2.6 2.4 -4.3
v 2.6 2.5 -4.3
v 2.6 0.1 -4.2
v 2.6 2.4 -4.2
v 5 0 -5
v 5 8 -5
v 5 0 -4.9
v 5 7.9 -4.9
v 5 2.5 -4.5
v 5 7.9 -4.5
v 5 8 -4.5
v 5 2.4 -4.4
v 5 2.5 -4.4
v 5 0 -4.3
v 5 0.1 -4.3
v 5 2.4 -4.3
v 5 0 -2.6
v 5 0.1 -2.6
v 5 0 -2.5
v 5 0.1 -2.5
v 5 0 2.5
v 5 0.1 2.5
v 5 0 2.6
v 5 0.1 2.6
v 5 0 5
v 5 0.1 5
v -5 0 -5
v -5 0 -4.9
v -5 0 -4.3
v -5 0 -2.6
v -5 0 -2.5
v -5 0 2.5
v -5 0 2.6
v -5 0 5
v -2.6 0 -4.3
v -2.6 0 -2.6
v -2.6 0 2.6
v -2.6 0 5
v -2.5 0 -4.3
v -2.5 0 -2.5
v -2.5 0 -2.2
v -2.5 0 2.2
v -2.5 0 2.5
v -2.5 0 5
v -2.2 0 -2.5
v -2.2 0 -2.2
v -2.2 0 2.2
v -2.2 0 2.5
v -1.8 0 -5
v -1.8 0 -4.9
v -1.8 0 -4.3
v 1.8 0 -5
v 1.8 0 -4.9
v 1.8 0 -4.3
v 2.2 0 -2.5
v 2.2 0 -2.2
v 2.2 0 2.2
v 2.2 0 2.5
v 2.5 0 -4.3
v 2.5 0 -2.5
v 2.5 0 -2.2
v 2.5 0 2.2
v 2.5 0 2.5
v 2.5 0 5
v 2.6 0 -4.3
v 2.6 0 -2.6
v 2.6 0 2.6
v 2.6 0 5
v 5 0 -5
v 5 0 -4.9
v 5 0 -4.3
v 5 0 -2.6
v 5 0 -2.5
v 5 0 2.5
v 5 0 2.6
v 5 0 5
v -1.8 6.7 -5
v -1.8 6.7 -4.9
v -1.8 6.7 -4.5
v -1.8 6.7 -4.4
v -1.7 6.7 -5
v -1.7 6.7 -4.9
v -1.7 6.7 -4.5
v -1.7 6.7 -4.4
v 1.7 6.7 -5
v 1.7 6.7 -4.9
v 1.7 6.7 -4.5
v 1.7 6.7 -4.4
v 1.8 6.7 -5
v 1.8 6.7 -4.9
v 1.8 6.7 -4.5
v 1.8 6.7 -4.4
v -1.7 6.8 -5
v -1.7 6.8 -4.9
v -1.7 6.8 -4.5
v -1.7 6.8 -4.4
v -1.6 6.8 -5
v -1.6 6.8 -4.9
v -1.6 6.8 -4.5
v -1.6 6.8 -4.4
v 1.6 6.8 -5
v 1.6 6.8 -4.9
v 1.6 6.8 -4.5
v 1.6 6.8 -4.4
v 1.7 6.8 -5
v 1.7 6.8 -4.9
v 1.7 6.8 -4.5
v 1.7 6.8 -4.4
v -1.6 6.9 -5
v -1.6 6.9 -4.9
v -1.6 6.9 -4.5
v -1.6 6.9 -4.4
v -1.5 6.9 -5
v -1.5 6.9 -4.9
v -1.5 6.9 -4.5
v -1.5 6.9 -4.4
v 1.5 6.9 -5
v 1.5 6.9 -4.9
v 1.5 6.9 -4.5
v 1.5 6.9 -4.4
v 1.6 6.9 -5
v 1.6 6.9 -4.9
v 1.6 6.9 -4.5
v 1.6 6.9 -4.4
v -1.5 7 -5
v -1.5 7 -4.9
v -1.5 7 -4.5
v -1.5 7 -4.4
v 1.5 7 -5
v 1.5 7 -4.9
v 1.5 7 -4.5
v 1.5 7 -4.4
v -5 0.1 -4.3
v -5 0.1 -2.6
v -5 0.1 -2.5
v -5 0.1 2.5
v -5 0.1 2.6
v -5 0.1 5
v -2.6 0.1 -4.3
v -2.6 0.1 -4.2
v -2.6 0.1 -2.6
v -2.6 0.1 2.6
v -2.6 0.1 5
v -2.5 0.1 -4.3
v -2.5 0.1 -4.2
v -2.5 0.1 -2.5
v -2.5 0.1 -2.2
v -2.5 0.1 2.2
v -2.5 0.1 2.5
v -2.5 0.1 5
v -2.2 0.1 -2.5
v -2.2 0.1 -2.2
v -2.2 0.1 2.2
v -2.2 0.1 2.5
v -1.9 0.1 -4.3
v -1.9 0.1 -4.2
v -1.8 0.1 -5
v -1.8 0.1 -4.9
v -1.8 0.1 -4.3
v -1.8 0.1 -4.2
v 1.8 0.1 -5
v 1.8 0.1 -4.9
v 1.8 0.1 -4.3
v 1.8 0.1 -4.2
v 1.9 0.1 -4.3
v 1.9 0.1 -4.2
v 2.2 0.1 -2.5
v 2.2 0.1 -2.2
v 2.2 0.1 2.2
v 2.2 0.1 2.5
v 2.5 0.1 -4.3
v 2.5 0.1 -4.2
v 2.5 0.1 -2.5
v 2.5 0.1 -2.2
v 2.5 0.1 2.2
v 2.5 0.1 2.5
v 2.5 0.1 5
v 2.6 0.1 -4.3
v 2.6 0.1 -4.2
v 2.6 0.1 -2.6
v 2.6 0.1 2.6
v 2.6 0.1 5
v 5 0.1 -4.3
v 5 0.1 -2.6
v 5 0.1 -2.5
v 5 0.1 2.5
v 5 0.1 2.6
v 5 0.1 5
v -5 2.4 -4.4
v -5 2.4 -4.3
v -2.6 2.4 -4.4
v -2.6 2.4 -4.3
v -2.6 2.4 -4.2
v -2.5 2.4 -4.4
v -2.5 2.4 -4.3
v -2.5 2.4 -4.2
v -1.9 2.4 -4.4
v -1.9 2.4 -4.3
v -1.9 2.4 -4.2
v -1.8 2.4 -4.3
v -1.8 2.4 -4.2
v 1.8 2.4 -4.3
v 1.8 2.4 -4.2
v 1.9 2.4 -4.4
v 1.9 2.4 -4.3
v 1.9 2.4 -4.2
v 2.5 2.4 -4.4
v 2.5 2.4 -4.3
v 2.5 2.4 -4.2
v 2.6 2.4 -4.4
v 2.6 2.4 -4.3
v 2.6 2.4 -4.2
v 5 2.4 -4.4
v 5 2.4 -4.3
v -5 2.5 -4.5
v -5 2.5 -4.4
v -2.6 2.5 -4.5
v -2.6 2.5 -4.4
v -2.6 2.5 -4.3
v -2.5 2.5 -4.5
v -2.5 2.5 -4.4
v -2.5 2.5 -4.3
v -1.9 2.5 -4.5
v -1.9 2.5 -4.4
v -1.9 2.5 -4.3
v -1.8 2.5 -4.4
v -1.8 2.5 -4.3
v 1.8 2.5 -4.4
v 1.8 2.5 -4.3
v 1.9 2.5 -4.5
v 1.9 2.5 -4.4
v 1.9 2.5 -4.3
v 2.5 2.5 -4.5
v 2.5 2.5 -4.4
v 2.5 2.5 -4.3
v 2.6 2.5 -4.5
v 2.6 2.5 -4.4
v 2.6 2.5 -4.3
v 5 2.5 -4.5
v 5 2.5 -4.4
v -1.9 6.7 -4.5
v -1.9 6.7 -4.4
v -1.8 6.7 -4.5
v -1.8 6.7 -4.4
v 1.8 6.7 -4.5
v 1.8 6.7 -4.4
v 1.9 6.7 -4.5
v 1.9 6.7 -4.4
v -1.8 6.8 -4.5
v -1.8 6.8 -4.4
v -1.7 6.8 -4.5
v -1.7 6.8 -4.4
v 1.7 6.8 -4.5
v 1.7 6.8 -4.4
v 1.8 6.8 -4.5
v 1.8 6.8 -4.4
v -1.7 6.9 -4.5
v -1.7 6.9 -4.4
v -1.6 6.9 -4.5
v -1.6 6.9 -4.4
v 1.6 6.9 -4.5
v 1.6 6.9 -4.4
v 1.7 6.9 -4.5
v 1.7 6.9 -4.4
v -1.6 7 -4.5
v -1.6 7 -4.4
v -1.5 7 -4.5
v -1.5 7 -4.4
v 1.5 7 -4.5
v 1.5 7 -4.4
v 1.6 7 -4.5
v 1.6 7 -4.4
v -1.5 7.1 -4.5
v -1.5 7.1 -4.4
v 1.5 7.1 -4.5
v 1.5 7.1 -4.4
v -5 8 -5
v -5 8 -4.5
v -2.6 8 -4.5
v -2.6 8 -4.4
v -2.5 8 -4.5
v -2.5 8 -4.4
v 2.5 8 -4.5
v 2.5 8 -4.4
v 2.6 8 -4.5
v 2.6 8 -4.4
v 5 8 -5
v 5 8 -4.5

# faces
f 5/2/1 2/2/1 1/2/1
f 5/1/1 3/1/1 2/1/1
f 6/2/1 4/2/1 3/2/1
f 6/1/1 3/1/1 5/1/1
f 7/2/1 5/2/1 1/2/1
f 10/2/1 4/2/1 6/2/1
f 11/2/1 8/2/1 7/2/1
f 14/2/1 10/2/1 9/2/1
f 15/2/1 12/2/1 11/2/1
f 18/2/1 14/2/1 13/2/1
f 19/2/1 16/2/1 15/2/1
f 20/2/1 18/2/1 17/2/1
f 21/2/1 19/2/1 15/2/1
f 21/2/1 20/2/1 19/2/1
f 21/2/1 7/2/1 1/2/1
f 21/2/1 11/2/1 7/2/1
f 21/2/1 15/2/1 11/2/1
f 22/2/1 18/2/1 20/2/1
f 22/2/1 20/2/1 21/2/1
f 22/2/1 4/2/1 10/2/1
f 22/2/1 14/2/1 18/2/1
f 22/2/1 10/2/1 14/2/1
f 25/3/2 26/3/2 31/3/2
f 27/3/2 28/3/2 34/3/2
f 31/3/2 32/3/2 35/3/2
f 33/3/2 34/3/2 38/3/2
f 35/3/2 36/3/2 39/3/2
f 37/3/2 38/3/2 42/3/2
f 39/3/2 40/3/2 43/3/2
f 41/3/2 42/3/2 46/3/2
f 43/3/2 44/3/2 47/3/2
f 45/3/2 46/3/2 48/3/2
f 23/3/2 24/3/2 49/3/2
f 49/3/2 24/3/2 50/3/2
f 47/3/2 48/3/2 51/3/2
f 43/3/2 47/3/2 51/3/2
f 25/3/2 31/3/2 51/3/2
f 31/3/2 35/3/2 51/3/2
f 35/3/2 39/3/2 51/3/2
f 39/3/2 43/3/2 51/3/2
f 48/3/2 46/3/2 52/3/2
f 51/3/2 48/3/2 52/3/2
f 34/3/2 28/3/2 52/3/2
f 38/3/2 34/3/2 52/3/2
f 42/3/2 38/3/2 52/3/2
f 46/3/2 42/3/2 52/3/2
f 29/3/2 30/3/2 53/3/2
f 53/3/2 30/3/2 54/3/2
f 49/2/2 50/2/2 55/2/2
f 55/2/2 50/2/2 56/2/2
f 51/2/2 52/2/2 57/2/2
f 57/2/2 52/2/2 58/2/2
f 53/2/2 54/2/2 59/2/2
f 59/2/2 54/2/2 60/2/2
f 61/3/2 62/3/2 69/3/2
f 69/3/2 62/3/2 70/3/2
f 63/3/2 64/3/2 71/3/2
f 71/3/2 64/3/2 72/3/2
f 65/3/2 66/3/2 75/3/2
f 75/3/2 66/3/2 76/3/2
f 67/3/2 68/3/2 77/3/2
f 77/3/2 68/3/2 78/3/2
f 72/2/2 73/2/2 79/2/2
f 79/2/2 73/2/2 80/2/2
f 74/2/2 75/2/2 83/2/2
f 83/2/2 75/2/2 84/2/2
f 80/2/2 81/2/2 85/2/2
f 85/2/2 81/2/2 86/2/2
f 82/2/2 83/2/2 89/2/2
f 89/2/2 83/2/2 90/2/2
f 86/2/2 87/2/2 91/2/2
f 91/2/2 87/2/2 92/2/2
f 88/2/2 89/2/2 95/2/2
f 95/2/2 89/2/2 96/2/2
f 92/2/2 93/2/2 97/2/2
f 97/2/2 93/2/2 98/2/2
f 94/2/2 95/2/2 99/2/2
f 99/2/2 95/2/2 100/2/2
f 98/2/2 99/2/2 101/2/2
f 101/2/2 99/2/2 102/2/2
f 70/2/2 71/2/2 103/2/2
f 103/2/2 71/2/2 104/2/2
f 76/2/2 77/2/2 105/2/2
f 105/2/2 77/2/2 106/2/2
f 107/3/2 108/3/2 115/3/2
f 115/3/2 108/3/2 116/3/2
f 109/3/2 110/3/2 117/3/2
f 117/3/2 110/3/2 118/3/2
f 111/3/2 112/3/2 121/3/2
f 121/3/2 112/3/2 122/3/2
f 113/3/2 114/3/2 123/3/2
f 123/3/2 114/3/2 124/3/2
f 116/2/2 117/2/2 125/2/2
f 125/2/2 117/2/2 126/2/2
f 118/2/2 119/2/2 127/2/2
f 127/2/2 119/2/2 128/2/2
f 120/2/2 121/2/2 129/2/2
f 129/2/2 121/2/2 130/2/2
f 122/2/2 123/2/2 131/2/2
f 131/2/2 123/2/2 132/2/2
f 133/2/2 134/2/2 141/2/2
f 141/2/2 134/2/2 142/2/2
f 135/2/2 136/2/2 143/2/2
f 143/2/2 136/2/2 144/2/2
f 137/2/2 138/2/2 145/2/2
f 145/2/2 138/2/2 146/2/2
f 139/2/2 140/2/2 147/2/2
f 147/2/2 140/2/2 148/2/2
f 149/1/2 150/1/2 155/1/2
f 150/2/2 151/2/2 156/2/2
f 155/1/2 150/1/2 156/1/2
f 151/1/2 152/1/2 157/1/2
f 156/2/2 151/2/2 157/2/2
f 152/2/2 153/2/2 158/2/2
f 157/1/2 152/1/2 158/1/2
f 153/1/2 154/1/2 159/1/2
f 158/2/2 153/2/2 159/2/2
f 159/1/2 154/1/2 160/1/2
f 163/2/3 162/2/3 161/2/3
f 164/2/3 162/2/3 163/2/3
f 165/3/3 164/3/3 163/3/3
f 166/2/3 162/2/3 164/2/3
f 166/3/3 164/3/3 165/3/3
f 167/2/3 162/2/3 166/2/3
f 168/3/3 165/3/3 163/3/3
f 169/3/3 165/3/3 168/3/3
f 170/3/3 168/3/3 163/3/3
f 171/3/3 168/3/3 170/3/3
f 172/3/3 168/3/3 171/3/3
f 173/1/3 171/1/3 170/1/3
f 174/1/3 171/1/3 173/1/3
f 175/2/3 174/2/3 173/2/3
f 176/2/3 174/2/3 175/2/3
f 177/1/3 176/1/3 175/1/3
f 178/1/3 176/1/3 177/1/3
f 179/2/3 178/2/3 177/2/3
f 180/2/3 178/2/3 179/2/3
f 181/1/3 180/1/3 179/1/3
f 182/1/3 180/1/3 181/1/3
f 187/2/3 184/2/3 183/2/3
f 187/2/3 185/2/3 184/2/3
f 188/2/3 185/2/3 187/2/3
f 190/2/3 187/2/3 186/2/3
f 191/2/3 187/2/3 190/2/3
f 192/2/3 190/2/3 189/2/3
f 193/2/3 190/2/3 192/2/3
f 197/2/3 195/2/3 194/2/3
f 198/2/3 195/2/3 197/2/3
f 200/2/3 197/2/3 196/2/3
f 201/2/3 197/2/3 200/2/3
f 202/2/3 200/2/3 199/2/3
f 203/2/3 200/2/3 202/2/3
f 206/2/3 205/2/3 204/2/3
f 207/2/3 205/2/3 206/2/3
f 210/2/3 209/2/3 208/2/3
f 211/2/3 209/2/3 210/2/3
f 214/2/3 213/2/3 212/2/3
f 215/2/3 213/2/3 214/2/3
f 218/2/3 217/2/3 216/2/3
f 219/2/3 217/2/3 218/2/3
f 222/2/3 221/2/3 220/2/3
f 223/2/3 221/2/3 222/2/3
f 224/1/3 223/1/3 222/1/3
f 225/1/3 223/1/3 224/1/3
f 226/2/3 225/2/3 224/2/3
f 227/2/3 225/2/3 226/2/3
f 230/2/3 229/2/3 228/2/3
f 231/2/3 229/2/3 230/2/3
f 232/1/3 231/1/3 230/1/3
f 233/1/3 231/1/3 232/1/3
f 234/2/3 233/2/3 232/2/3
f 235/2/3 233/2/3 234/2/3
f 238/2/3 237/2/3 236/2/3
f 239/2/3 237/2/3 238/2/3
f 240/1/3 239/1/3 238/1/3
f 241/1/3 239/1/3 240/1/3
f 242/2/3 241/2/3 240/2/3
f 243/2/3 241/2/3 242/2/3
f 246/2/3 245/2/3 244/2/3
f 247/2/3 245/2/3 246/2/3
f 248/1/3 247/1/3 246/1/3
f 249/1/3 247/1/3 248/1/3
f 250/1/3 248/1/3 246/1/3
f 251/2/3 249/2/3 248/2/3
f 251/1/3 248/1/3 250/1/3
f 252/2/3 249/2/3 251/2/3
f 253/1/3 250/1/3 246/1/3
f 254/2/3 251/2/3 250/2/3
f 254/1/3 250/1/3 253/1/3
f 255/2/3 251/2/3 254/2/3
f 256/2/3 254/2/3 253/2/3
f 257/2/3 254/2/3 256/2/3
f 262/2/3 259/2/3 258/2/3
f 262/2/3 260/2/3 259/2/3
f 263/2/3 260/2/3 262/2/3
f 265/2/3 262/2/3 261/2/3
f 266/2/3 262/2/3 265/2/3
f 267/2/3 265/2/3 264/2/3
f 268/2/3 265/2/3 267/2/3
f 269/2/4 270/2/4 273/2/4
f 270/2/4 271/2/4 273/2/4
f 273/2/4 271/2/4 274/2/4
f 272/2/4 273/2/4 276/2/4
f 276/2/4 273/2/4 277/2/4
f 275/2/4 276/2/4 278/2/4
f 278/2/4 276/2/4 279/2/4
f 280/2/4 281/2/4 282/2/4
f 282/2/4 281/2/4 283/2/4
f 282/1/4 283/1/4 284/1/4
f 284/1/4 283/1/4 285/1/4
f 282/1/4 284/1/4 286/1/4
f 284/2/4 285/2/4 287/2/4
f 286/1/4 284/1/4 287/1/4
f 287/2/4 285/2/4 288/2/4
f 282/1/4 286/1/4 289/1/4
f 286/2/4 287/2/4 290/2/4
f 289/1/4 286/1/4 290/1/4
f 290/2/4 287/2/4 291/2/4
f 289/2/4 290/2/4 292/2/4
f 292/2/4 290/2/4 293/2/4
f 294/2/4 295/2/4 296/2/4
f 296/2/4 295/2/4 297/2/4
f 296/1/4 297/1/4 298/1/4
f 298/1/4 297/1/4 299/1/4
f 298/2/4 299/2/4 300/2/4
f 300/2/4 299/2/4 301/2/4
f 302/2/4 303/2/4 304/2/4
f 304/2/4 303/2/4 305/2/4
f 304/1/4 305/1/4 306/1/4
f 306/1/4 305/1/4 307/1/4
f 306/2/4 307/2/4 308/2/4
f 308/2/4 307/2/4 309/2/4
f 310/2/4 311/2/4 312/2/4
f 312/2/4 311/2/4 313/2/4
f 312/1/4 313/1/4 314/1/4
f 314/1/4 313/1/4 315/1/4
f 314/2/4 315/2/4 316/2/4
f 316/2/4 315/2/4 317/2/4
f 318/2/4 319/2/4 320/2/4
f 320/2/4 319/2/4 321/2/4
f 322/2/4 323/2/4 324/2/4
f 324/2/4 323/2/4 325/2/4
f 326/2/4 327/2/4 328/2/4
f 328/2/4 327/2/4 329/2/4
f 330/2/4 331/2/4 332/2/4
f 332/2/4 331/2/4 333/2/4
f 334/2/4 335/2/4 337/2/4
f 337/2/4 335/2/4 338/2/4
f 336/2/4 337/2/4 340/2/4
f 340/2/4 337/2/4 341/2/4
f 339/2/4 340/2/4 342/2/4
f 342/2/4 340/2/4 343/2/4
f 344/2/4 345/2/4 348/2/4
f 345/2/4 346/2/4 348/2/4
f 348/2/4 346/2/4 349/2/4
f 347/2/4 348/2/4 351/2/4
f 351/2/4 348/2/4 352/2/4
f 350/2/4 351/2/4 353/2/4
f 353/2/4 351/2/4 354/2/4
f 355/2/4 356/2/4 357/2/4
f 357/2/4 356/2/4 358/2/4
f 357/3/4 358/3/4 359/3/4
f 358/2/4 356/2/4 360/2/4
f 359/3/4 358/3/4 360/3/4
f 360/2/4 356/2/4 361/2/4
f 357/3/4 359/3/4 362/3/4
f 362/3/4 359/3/4 363/3/4
f 357/3/4 362/3/4 364/3/4
f 364/3/4 362/3/4 365/3/4
f 365/3/4 362/3/4 366/3/4
f 364/1/4 365/1/4 367/1/4
f 367/1/4 365/1/4 368/1/4
f 367/2/4 368/2/4 369/2/4
f 369/2/4 368/2/4 370/2/4
f 369/1/4 370/1/4 371/1/4
f 371/1/4 370/1/4 372/1/4
f 371/2/4 372/2/4 373/2/4
f 373/2/4 372/2/4 374/2/4
f 373/1/4 374/1/4 375/1/4
f 375/1/4 374/1/4 376/1/4
f 385/3/5 379/3/5 378/3/5
f 385/1/5 380/1/5 379/1/5
f 386/2/5 381/2/5 380/2/5
f 386/1/5 380/1/5 385/1/5
f 387/1/5 384/1/5 383/1/5
f 387/2/5 383/2/5 382/2/5
f 388/1/5 384/1/5 387/1/5
f 389/2/5 386/2/5 385/2/5
f 389/3/5 385/3/5 378/3/5
f 390/2/5 381/2/5 386/2/5
f 390/2/5 386/2/5 389/2/5
f 390/1/5 382/1/5 381/1/5
f 391/1/5 382/1/5 390/1/5
f 392/1/5 382/1/5 391/1/5
f 393/2/5 388/2/5 387/2/5
f 393/1/5 382/1/5 392/1/5
f 393/2/5 387/2/5 382/2/5
f 394/2/5 388/2/5 393/2/5
f 395/2/5 391/2/5 390/2/5
f 395/1/5 390/1/5 389/1/5
f 396/1/5 392/1/5 391/1/5
f 396/2/5 391/2/5 395/2/5
f 397/2/5 393/2/5 392/2/5
f 397/1/5 392/1/5 396/1/5
f 398/1/5 394/1/5 393/1/5
f 398/2/5 393/2/5 397/2/5
f 399/2/5 378/2/5 377/2/5
f 400/3/5 389/3/5 378/3/5
f 400/2/5 378/2/5 399/2/5
f 401/1/5 395/1/5 389/1/5
f 401/3/5 389/3/5 400/3/5
f 401/1/5 397/1/5 396/1/5
f 401/1/5 398/1/5 397/1/5
f 401/1/5 396/1/5 395/1/5
f 402/1/5 400/1/5 399/1/5
f 402/1/5 401/1/5 400/1/5
f 403/1/5 401/1/5 402/1/5
f 404/1/5 398/1/5 401/1/5
f 404/1/5 401/1/5 403/1/5
f 405/1/5 398/1/5 404/1/5
f 406/1/5 398/1/5 405/1/5
f 407/1/5 398/1/5 406/1/5
f 408/1/5 394/1/5 398/1/5
f 408/1/5 398/1/5 407/1/5
f 409/3/5 404/3/5 403/3/5
f 409/1/5 405/1/5 404/1/5
f 410/2/5 406/2/5 405/2/5
f 410/1/5 405/1/5 409/1/5
f 411/1/5 407/1/5 406/1/5
f 411/2/5 406/2/5 410/2/5
f 412/2/5 408/2/5 407/2/5
f 412/1/5 407/1/5 411/1/5
f 413/1/5 394/1/5 408/1/5
f 413/2/5 408/2/5 412/2/5
f 414/1/5 394/1/5 413/1/5
f 415/2/5 410/2/5 409/2/5
f 415/3/5 409/3/5 403/3/5
f 416/2/5 410/2/5 415/2/5
f 417/2/5 414/2/5 413/2/5
f 418/2/5 414/2/5 417/2/5
f 419/2/5 403/2/5 402/2/5
f 420/3/5 415/3/5 403/3/5
f 420/2/5 403/2/5 419/2/5
f 421/1/5 416/1/5 415/1/5
f 421/3/5 415/3/5 420/3/5
f 422/2/5 410/2/5 416/2/5
f 422/1/5 416/1/5 421/1/5
f 423/1/5 412/1/5 411/1/5
f 423/2/5 410/2/5 422/2/5
f 423/1/5 411/1/5 410/1/5
f 423/1/5 413/1/5 412/1/5
f 424/2/5 417/2/5 413/2/5
f 424/1/5 413/1/5 423/1/5
f 425/1/5 418/1/5 417/1/5
f 425/2/5 417/2/5 424/2/5
f 426/1/5 418/1/5 425/1/5
f 431/2/5 428/2/5 427/2/5
f 432/1/5 429/1/5 428/1/5
f 432/2/5 428/2/5 431/2/5
f 433/2/5 430/2/5 429/2/5
f 433/1/5 429/1/5 432/1/5
f 434/2/5 430/2/5 433/2/5
f 439/2/5 436/2/5 435/2/5
f 440/1/5 437/1/5 436/1/5
f 440/2/5 436/2/5 439/2/5
f 441/2/5 438/2/5 437/2/5
f 441/1/5 437/1/5 440/1/5
f 442/2/5 438/2/5 441/2/5
f 447/2/5 444/2/5 443/2/5
f 448/1/5 445/1/5 444/1/5
f 448/2/5 444/2/5 447/2/5
f 449/2/5 446/2/5 445/2/5
f 449/1/5 445/1/5 448/1/5
f 450/2/5 446/2/5 449/2/5
f 455/2/5 452/2/5 451/2/5
f 456/1/5 453/1/5 452/1/5
f 456/2/5 452/2/5 455/2/5
f 457/2/5 454/2/5 453/2/5
f 457/1/5 453/1/5 456/1/5
f 458/2/5 454/2/5 457/2/5
f 463/2/5 460/2/5 459/2/5
f 464/1/5 461/1/5 460/1/5
f 464/2/5 460/2/5 463/2/5
f 465/2/5 462/2/5 461/2/5
f 465/1/5 461/1/5 464/1/5
f 466/2/5 462/2/5 465/2/5
f 471/2/5 468/2/5 467/2/5
f 472/1/5 469/1/5 468/1/5
f 472/2/5 468/2/5 471/2/5
f 473/2/5 470/2/5 469/2/5
f 473/1/5 469/1/5 472/1/5
f 474/2/5 470/2/5 473/2/5
f 479/2/5 476/2/5 475/2/5
f 480/1/5 477/1/5 476/1/5
f 480/2/5 476/2/5 479/2/5
f 481/2/5 478/2/5 477/2/5
f 481/1/5 477/1/5 480/1/5
f 482/2/5 478/2/5 481/2/5
f 483/1/6 484/1/6 489/1/6
f 489/1/6 484/1/6 490/1/6
f 484/2/6 485/2/6 491/2/6
f 490/1/6 484/1/6 491/1/6
f 487/1/6 488/1/6 492/1/6
f 486/2/6 487/2/6 492/2/6
f 492/1/6 488/1/6 493/1/6
f 490/2/6 491/2/6 495/2/6
f 491/2/6 485/2/6 496/2/6
f 485/1/6 486/1/6 496/1/6
f 495/2/6 491/2/6 496/2/6
f 496/1/6 486/1/6 497/1/6
f 497/1/6 486/1/6 498/1/6
f 492/2/6 493/2/6 499/2/6
f 498/1/6 486/1/6 499/1/6
f 486/2/6 492/2/6 499/2/6
f 499/2/6 493/2/6 500/2/6
f 494/1/6 495/1/6 501/1/6
f 496/2/6 497/2/6 501/2/6
f 495/1/6 496/1/6 501/1/6
f 497/1/6 498/1/6 502/1/6
f 501/2/6 497/2/6 502/2/6
f 498/2/6 499/2/6 503/2/6
f 502/1/6 498/1/6 503/1/6
f 499/1/6 500/1/6 504/1/6
f 503/2/6 499/2/6 504/2/6
f 494/1/6 501/1/6 505/1/6
f 502/1/6 503/1/6 505/1/6
f 503/1/6 504/1/6 505/1/6
f 501/1/6 502/1/6 505/1/6
f 505/1/6 504/1/6 506/1/6
f 506/1/6 504/1/6 510/1/6
f 508/1/6 509/1/6 511/1/6
f 509/1/6 510/1/6 511/1/6
f 507/1/6 508/1/6 511/1/6
f 511/1/6 510/1/6 512/1/6
f 512/1/6 510/1/6 513/1/6
f 510/1/6 504/1/6 514/1/6
f 513/1/6 510/1/6 514/1/6
f 514/1/6 504/1/6 516/1/6
f 516/1/6 504/1/6 517/1/6
f 515/1/6 516/1/6 517/1/6
f 517/1/6 504/1/6 518/1/6
f 518/1/6 504/1/6 519/1/6
f 504/1/6 500/1/6 520/1/6
f 519/1/6 504/1/6 520/1/6
f 515/1/6 517/1/6 521/1/6
f 521/1/6 517/1/6 522/1/6
f 517/2/6 518/2/6 523/2/6
f 522/1/6 517/1/6 523/1/6
f 518/1/6 519/1/6 524/1/6
f 523/2/6 518/2/6 524/2/6
f 519/2/6 520/2/6 525/2/6
f 524/1/6 519/1/6 525/1/6
f 520/1/6 500/1/6 526/1/6
f 525/2/6 520/2/6 526/2/6
f 526/1/6 500/1/6 527/1/6
f 522/2/6 523/2/6 529/2/6
f 529/2/6 523/2/6 530/2/6
f 526/2/6 527/2/6 531/2/6
f 531/2/6 527/2/6 532/2/6
f 528/1/6 529/1/6 533/1/6
f 529/1/6 530/1/6 533/1/6
f 530/2/6 523/2/6 534/2/6
f 533/1/6 530/1/6 534/1/6
f 524/1/6 525/1/6 535/1/6
f 534/2/6 523/2/6 535/2/6
f 523/1/6 524/1/6 535/1/6
f 525/1/6 526/1/6 535/1/6
f 526/2/6 531/2/6 536/2/6
f 535/1/6 526/1/6 536/1/6
f 531/1/6 532/1/6 537/1/6
f 536/2/6 531/2/6 537/2/6
f 537/1/6 532/1/6 538/1/6
f 539/3/6 540/3/6 541/3/6
f 541/3/6 540/3/6 542/3/6
f 542/2/6 543/2/6 545/2/6
f 545/2/6 543/2/6 546/2/6
f 544/3/6 545/3/6 547/3/6
f 547/3/6 545/3/6 548/3/6
f 548/2/6 549/2/6 550/2/6
f 550/2/6 549/2/6 551/2/6
f 552/2/6 553/2/6 555/2/6
f 555/2/6 553/2/6 556/2/6
f 554/3/6 555/3/6 557/3/6
f 557/3/6 555/3/6 558/3/6
f 558/2/6 559/2/6 561/2/6
f 561/2/6 559/2/6 562/2/6
f 560/3/6 561/3/6 563/3/6
f 563/3/6 561/3/6 564/3/6
f 565/3/6 566/3/6 567/3/6
f 567/3/6 566/3/6 568/3/6
f 568/2/6 569/2/6 571/2/6
f 571/2/6 569/2/6 572/2/6
f 570/3/6 571/3/6 573/3/6
f 573/3/6 571/3/6 574/3/6
f 574/2/6 575/2/6 576/2/6
f 576/2/6 575/2/6 577/2/6
f 578/2/6 579/2/6 581/2/6
f 581/2/6 579/2/6 582/2/6
f 580/3/6 581/3/6 583/3/6
f 583/3/6 581/3/6 584/3/6
f 584/2/6 585/2/6 587/2/6
f 587/2/6 585/2/6 588/2/6
f 586/3/6 587/3/6 589/3/6
f 589/3/6 587/3/6 590/3/6
f 591/2/6 592/2/6 593/2/6
f 593/2/6 592/2/6 594/2/6
f 595/2/6 596/2/6 597/2/6
f 597/2/6 596/2/6 598/2/6
f 599/2/6 600/2/6 601/2/6
f 601/2/6 600/2/6 602/2/6
f 603/2/6 604/2/6 605/2/6
f 605/2/6 604/2/6 606/2/6
f 607/2/6 608/2/6 609/2/6
f 609/2/6 608/2/6 610/2/6
f 611/2/6 612/2/6 613/2/6
f 613/2/6 612/2/6 614/2/6
f 615/2/6 616/2/6 617/2/6
f 617/2/6 616/2/6 618/2/6
f 619/2/6 620/2/6 621/2/6
f 621/2/6 620/2/6 622/2/6
f 623/2/6 624/2/6 625/2/6
f 625/2/6 624/2/6 626/2/6
f 627/2/6 628/2/6 629/2/6
f 627/2/6 629/2/6 631/2/6
f 629/2/6 630/2/6 631/2/6
f 631/2/6 630/2/6 632/2/6
f 627/2/6 631/2/6 633/2/6
f 627/2/6 633/2/6 635/2/6
f 633/2/6 634/2/6 635/2/6
f 635/2/6 634/2/6 636/2/6
f 627/2/6 635/2/6 637/2/6
f 637/2/6 635/2/6 638/2/6
