# MagicaVoxel @ Ephtracy

# group
o 

# material
mtllib Wall.mtl
usemtl palette

# normals
vn 0 0 -1
vn 0 0 1
vn -1 0 0
vn 1 0 0
vn 0 -1 0
vn 0 1 0

# texcoords
vt 0.0175781 0.5
vt 0.0292969 0.5
vt 0.0449219 0.5

# verts
v -5 0 -5
v 5 0 -5
v -5 8 -5
v 5 8 -5
v -5 2.5 -4.5
v -2.6 2.5 -4.5
v -2.5 2.5 -4.5
v 2.5 2.5 -4.5
v 2.6 2.5 -4.5
v 5 2.5 -4.5
v -5 7.9 -4.5
v -2.6 7.9 -4.5
v -2.5 7.9 -4.5
v 2.5 7.9 -4.5
v 2.6 7.9 -4.5
v 5 7.9 -4.5
v -5 8 -4.5
v -2.6 8 -4.5
v -2.5 8 -4.5
v 2.5 8 -4.5
v 2.6 8 -4.5
v 5 8 -4.5
v -5 2.4 -4.4
v -2.6 2.4 -4.4
v -2.5 2.4 -4.4
v 2.5 2.4 -4.4
v 2.6 2.4 -4.4
v 5 2.4 -4.4
v -5 2.5 -4.4
v -2.6 2.5 -4.4
v -2.5 2.5 -4.4
v 2.5 2.5 -4.4
v 2.6 2.5 -4.4
v 5 2.5 -4.4
v -2.6 8 -4.4
v -2.5 8 -4.4
v 2.5 8 -4.4
v 2.6 8 -4.4
v -5 0.1 -4.3
v -2.6 0.1 -4.3
v -2.5 0.1 -4.3
v 2.5 0.1 -4.3
v 2.6 0.1 -4.3
v 5 0.1 -4.3
v -5 2.4 -4.3
v -2.6 2.4 -4.3
v -2.5 2.4 -4.3
v 2.5 2.4 -4.3
v 2.6 2.4 -4.3
v 5 2.4 -4.3
v -2.6 2.5 -4.3
v -2.5 2.5 -4.3
v 2.5 2.5 -4.3
v 2.6 2.5 -4.3
v -2.6 0.1 -4.2
v -2.5 0.1 -4.2
v 2.5 0.1 -4.2
v 2.6 0.1 -4.2
v -2.6 2.4 -4.2
v -2.5 2.4 -4.2
v 2.5 2.4 -4.2
v 2.6 2.4 -4.2
v -5 0 5
v -2.6 0 5
v -2.5 0 5
v 2.5 0 5
v 2.6 0 5
v 5 0 5
v -5 0.1 5
v -2.6 0.1 5
v -2.5 0.1 5
v 2.5 0.1 5
v 2.6 0.1 5
v 5 0.1 5
v -5 0 -5
v -5 8 -5
v -5 0 -4.9
v -5 7.9 -4.9
v -5 2.5 -4.5
v -5 7.9 -4.5
v -5 8 -4.5
v -5 2.4 -4.4
v -5 2.5 -4.4
v -5 0 -4.3
v -5 0.1 -4.3
v -5 2.4 -4.3
v -5 0 -2.6
v -5 0.1 -2.6
v -5 0 -2.5
v -5 0.1 -2.5
v -5 0 2.5
v -5 0.1 2.5
v -5 0 2.6
v -5 0.1 2.6
v -5 0 5
v -5 0.1 5
v -2.6 2.5 -4.5
v -2.6 7.9 -4.5
v -2.6 8 -4.5
v -2.6 2.4 -4.4
v -2.6 2.5 -4.4
v -2.6 8 -4.4
v -2.6 0.1 -4.3
v -2.6 2.4 -4.3
v -2.6 2.5 -4.3
v -2.6 0.1 -4.2
v -2.6 2.4 -4.2
v 2.5 2.5 -4.5
v 2.5 7.9 -4.5
v 2.5 8 -4.5
v 2.5 2.4 -4.4
v 2.5 2.5 -4.4
v 2.5 8 -4.4
v 2.5 0.1 -4.3
v 2.5 2.4 -4.3
v 2.5 2.5 -4.3
v 2.5 0.1 -4.2
v 2.5 2.4 -4.2
v -2.5 2.5 -4.5
v -2.5 7.9 -4.5
v -2.5 8 -4.5
v -2.5 2.4 -4.4
v -2.5 2.5 -4.4
v -2.5 8 -4.4
v -2.5 0.1 -4.3
v -2.5 2.4 -4.3
v -2.5 2.5 -4.3
v -2.5 0.1 -4.2
v -2.5 2.4 -4.2
v 2.6 2.5 -4.5
v 2.6 7.9 -4.5
v 2.6 8 -4.5
v 2.6 2.4 -4.4
v 2.6 2.5 -4.4
v 2.6 8 -4.4
v 2.6 0.1 -4.3
v 2.6 2.4 -4.3
v 2.6 2.5 -4.3
v 2.6 0.1 -4.2
v 2.6 2.4 -4.2
v 5 0 -5
v 5 8 -5
v 5 0 -4.9
v 5 7.9 -4.9
v 5 2.5 -4.5
v 5 7.9 -4.5
v 5 8 -4.5
v 5 2.4 -4.4
v 5 2.5 -4.4
v 5 0 -4.3
v 5 0.1 -4.3
v 5 2.4 -4.3
v 5 0 -2.6
v 5 0.1 -2.6
v 5 0 -2.5
v 5 0.1 -2.5
v 5 0 2.5
v 5 0.1 2.5
v 5 0 2.6
v 5 0.1 2.6
v 5 0 5
v 5 0.1 5
v -5 0 -5
v -5 0 -4.9
v -5 0 -4.3
v -5 0 -2.6
v -5 0 -2.5
v -5 0 2.5
v -5 0 2.6
v -5 0 5
v -2.6 0 -4.3
v -2.6 0 -2.6
v -2.6 0 2.6
v -2.6 0 5
v -2.5 0 -4.3
v -2.5 0 -2.5
v -2.5 0 -2.2
v -2.5 0 2.2
v -2.5 0 2.5
v -2.5 0 5
v -2.2 0 -2.5
v -2.2 0 -2.2
v -2.2 0 2.2
v -2.2 0 2.5
v 2.2 0 -2.5
v 2.2 0 -2.2
v 2.2 0 2.2
v 2.2 0 2.5
v 2.5 0 -4.3
v 2.5 0 -2.5
v 2.5 0 -2.2
v 2.5 0 2.2
v 2.5 0 2.5
v 2.5 0 5
v 2.6 0 -4.3
v 2.6 0 -2.6
v 2.6 0 2.6
v 2.6 0 5
v 5 0 -5
v 5 0 -4.9
v 5 0 -4.3
v 5 0 -2.6
v 5 0 -2.5
v 5 0 2.5
v 5 0 2.6
v 5 0 5
v -5 0.1 -4.3
v -5 0.1 -2.6
v -5 0.1 -2.5
v -5 0.1 2.5
v -5 0.1 2.6
v -5 0.1 5
v -2.6 0.1 -4.3
v -2.6 0.1 -4.2
v -2.6 0.1 -2.6
v -2.6 0.1 2.6
v -2.6 0.1 5
v -2.5 0.1 -4.3
v -2.5 0.1 -4.2
v -2.5 0.1 -2.5
v -2.5 0.1 -2.2
v -2.5 0.1 2.2
v -2.5 0.1 2.5
v -2.5 0.1 5
v -2.2 0.1 -2.5
v -2.2 0.1 -2.2
v -2.2 0.1 2.2
v -2.2 0.1 2.5
v 2.2 0.1 -2.5
v 2.2 0.1 -2.2
v 2.2 0.1 2.2
v 2.2 0.1 2.5
v 2.5 0.1 -4.3
v 2.5 0.1 -4.2
v 2.5 0.1 -2.5
v 2.5 0.1 -2.2
v 2.5 0.1 2.2
v 2.5 0.1 2.5
v 2.5 0.1 5
v 2.6 0.1 -4.3
v 2.6 0.1 -4.2
v 2.6 0.1 -2.6
v 2.6 0.1 2.6
v 2.6 0.1 5
v 5 0.1 -4.3
v 5 0.1 -2.6
v 5 0.1 -2.5
v 5 0.1 2.5
v 5 0.1 2.6
v 5 0.1 5
v -5 2.4 -4.4
v -5 2.4 -4.3
v -2.6 2.4 -4.4
v -2.6 2.4 -4.3
v -2.6 2.4 -4.2
v -2.5 2.4 -4.4
v -2.5 2.4 -4.3
v -2.5 2.4 -4.2
v 2.5 2.4 -4.4
v 2.5 2.4 -4.3
v 2.5 2.4 -4.2
v 2.6 2.4 -4.4
v 2.6 2.4 -4.3
v 2.6 2.4 -4.2
v 5 2.4 -4.4
v 5 2.4 -4.3
v -5 2.5 -4.5
v -5 2.5 -4.4
v -2.6 2.5 -4.5
v -2.6 2.5 -4.4
v -2.6 2.5 -4.3
v -2.5 2.5 -4.5
v -2.5 2.5 -4.4
v -2.5 2.5 -4.3
v 2.5 2.5 -4.5
v 2.5 2.5 -4.4
v 2.5 2.5 -4.3
v 2.6 2.5 -4.5
v 2.6 2.5 -4.4
v 2.6 2.5 -4.3
v 5 2.5 -4.5
v 5 2.5 -4.4
v -5 8 -5
v -5 8 -4.5
v -2.6 8 -4.5
v -2.6 8 -4.4
v -2.5 8 -4.5
v -2.5 8 -4.4
v 2.5 8 -4.5
v 2.5 8 -4.4
v 2.6 8 -4.5
v 2.6 8 -4.4
v 5 8 -5
v 5 8 -4.5

# faces
f 3/2/1 2/2/1 1/2/1
f 4/2/1 2/2/1 3/2/1
f 5/3/2 6/3/2 11/3/2
f 11/3/2 6/3/2 12/3/2
f 7/3/2 8/3/2 13/3/2
f 13/3/2 8/3/2 14/3/2
f 9/3/2 10/3/2 15/3/2
f 15/3/2 10/3/2 16/3/2
f 11/2/2 12/2/2 17/2/2
f 17/2/2 12/2/2 18/2/2
f 13/2/2 14/2/2 19/2/2
f 19/2/2 14/2/2 20/2/2
f 15/2/2 16/2/2 21/2/2
f 21/2/2 16/2/2 22/2/2
f 23/3/2 24/3/2 29/3/2
f 29/3/2 24/3/2 30/3/2
f 25/3/2 26/3/2 31/3/2
f 31/3/2 26/3/2 32/3/2
f 27/3/2 28/3/2 33/3/2
f 33/3/2 28/3/2 34/3/2
f 30/2/2 31/2/2 35/2/2
f 35/2/2 31/2/2 36/2/2
f 32/2/2 33/2/2 37/2/2
f 37/2/2 33/2/2 38/2/2
f 39/3/2 40/3/2 45/3/2
f 45/3/2 40/3/2 46/3/2
f 41/3/2 42/3/2 47/3/2
f 47/3/2 42/3/2 48/3/2
f 43/3/2 44/3/2 49/3/2
f 49/3/2 44/3/2 50/3/2
f 46/2/2 47/2/2 51/2/2
f 51/2/2 47/2/2 52/2/2
f 48/2/2 49/2/2 53/2/2
f 53/2/2 49/2/2 54/2/2
f 55/2/2 56/2/2 59/2/2
f 59/2/2 56/2/2 60/2/2
f 57/2/2 58/2/2 61/2/2
f 61/2/2 58/2/2 62/2/2
f 63/1/2 64/1/2 69/1/2
f 64/2/2 65/2/2 70/2/2
f 69/1/2 64/1/2 70/1/2
f 65/1/2 66/1/2 71/1/2
f 70/2/2 65/2/2 71/2/2
f 66/2/2 67/2/2 72/2/2
f 71/1/2 66/1/2 72/1/2
f 67/1/2 68/1/2 73/1/2
f 72/2/2 67/2/2 73/2/2
f 73/1/2 68/1/2 74/1/2
f 77/2/3 76/2/3 75/2/3
f 78/2/3 76/2/3 77/2/3
f 79/3/3 78/3/3 77/3/3
f 80/2/3 76/2/3 78/2/3
f 80/3/3 78/3/3 79/3/3
f 81/2/3 76/2/3 80/2/3
f 82/3/3 79/3/3 77/3/3
f 83/3/3 79/3/3 82/3/3
f 84/3/3 82/3/3 77/3/3
f 85/3/3 82/3/3 84/3/3
f 86/3/3 82/3/3 85/3/3
f 87/1/3 85/1/3 84/1/3
f 88/1/3 85/1/3 87/1/3
f 89/2/3 88/2/3 87/2/3
f 90/2/3 88/2/3 89/2/3
f 91/1/3 90/1/3 89/1/3
f 92/1/3 90/1/3 91/1/3
f 93/2/3 92/2/3 91/2/3
f 94/2/3 92/2/3 93/2/3
f 95/1/3 94/1/3 93/1/3
f 96/1/3 94/1/3 95/1/3
f 101/2/3 98/2/3 97/2/3
f 101/2/3 99/2/3 98/2/3
f 102/2/3 99/2/3 101/2/3
f 104/2/3 101/2/3 100/2/3
f 105/2/3 101/2/3 104/2/3
f 106/2/3 104/2/3 103/2/3
f 107/2/3 104/2/3 106/2/3
f 112/2/3 109/2/3 108/2/3
f 112/2/3 110/2/3 109/2/3
f 113/2/3 110/2/3 112/2/3
f 115/2/3 112/2/3 111/2/3
f 116/2/3 112/2/3 115/2/3
f 117/2/3 115/2/3 114/2/3
f 118/2/3 115/2/3 117/2/3
f 119/2/4 120/2/4 123/2/4
f 120/2/4 121/2/4 123/2/4
f 123/2/4 121/2/4 124/2/4
f 122/2/4 123/2/4 126/2/4
f 126/2/4 123/2/4 127/2/4
f 125/2/4 126/2/4 128/2/4
f 128/2/4 126/2/4 129/2/4
f 130/2/4 131/2/4 134/2/4
f 131/2/4 132/2/4 134/2/4
f 134/2/4 132/2/4 135/2/4
f 133/2/4 134/2/4 137/2/4
f 137/2/4 134/2/4 138/2/4
f 136/2/4 137/2/4 139/2/4
f 139/2/4 137/2/4 140/2/4
f 141/2/4 142/2/4 143/2/4
f 143/2/4 142/2/4 144/2/4
f 143/3/4 144/3/4 145/3/4
f 144/2/4 142/2/4 146/2/4
f 145/3/4 144/3/4 146/3/4
f 146/2/4 142/2/4 147/2/4
f 143/3/4 145/3/4 148/3/4
f 148/3/4 145/3/4 149/3/4
f 143/3/4 148/3/4 150/3/4
f 150/3/4 148/3/4 151/3/4
f 151/3/4 148/3/4 152/3/4
f 150/1/4 151/1/4 153/1/4
f 153/1/4 151/1/4 154/1/4
f 153/2/4 154/2/4 155/2/4
f 155/2/4 154/2/4 156/2/4
f 155/1/4 156/1/4 157/1/4
f 157/1/4 156/1/4 158/1/4
f 157/2/4 158/2/4 159/2/4
f 159/2/4 158/2/4 160/2/4
f 159/1/4 160/1/4 161/1/4
f 161/1/4 160/1/4 162/1/4
f 171/3/5 165/3/5 164/3/5
f 171/1/5 166/1/5 165/1/5
f 172/2/5 167/2/5 166/2/5
f 172/1/5 166/1/5 171/1/5
f 173/1/5 170/1/5 169/1/5
f 173/2/5 169/2/5 168/2/5
f 174/1/5 170/1/5 173/1/5
f 175/2/5 172/2/5 171/2/5
f 175/3/5 171/3/5 164/3/5
f 176/2/5 167/2/5 172/2/5
f 176/2/5 172/2/5 175/2/5
f 176/1/5 168/1/5 167/1/5
f 177/1/5 168/1/5 176/1/5
f 178/1/5 168/1/5 177/1/5
f 179/2/5 174/2/5 173/2/5
f 179/1/5 168/1/5 178/1/5
f 179/2/5 173/2/5 168/2/5
f 180/2/5 174/2/5 179/2/5
f 181/2/5 177/2/5 176/2/5
f 181/1/5 176/1/5 175/1/5
f 182/1/5 178/1/5 177/1/5
f 182/2/5 177/2/5 181/2/5
f 183/2/5 179/2/5 178/2/5
f 183/1/5 178/1/5 182/1/5
f 184/1/5 180/1/5 179/1/5
f 184/2/5 179/2/5 183/2/5
f 185/1/5 181/1/5 175/1/5
f 185/1/5 183/1/5 182/1/5
f 185/1/5 184/1/5 183/1/5
f 185/1/5 182/1/5 181/1/5
f 186/1/5 184/1/5 185/1/5
f 187/1/5 184/1/5 186/1/5
f 188/1/5 180/1/5 184/1/5
f 188/1/5 184/1/5 187/1/5
f 189/3/5 175/3/5 164/3/5
f 189/1/5 185/1/5 175/1/5
f 190/2/5 186/2/5 185/2/5
f 190/1/5 185/1/5 189/1/5
f 191/1/5 187/1/5 186/1/5
f 191/2/5 186/2/5 190/2/5
f 192/2/5 188/2/5 187/2/5
f 192/1/5 187/1/5 191/1/5
f 193/1/5 180/1/5 188/1/5
f 193/2/5 188/2/5 192/2/5
f 194/1/5 180/1/5 193/1/5
f 195/2/5 190/2/5 189/2/5
f 195/3/5 189/3/5 164/3/5
f 196/2/5 190/2/5 195/2/5
f 197/2/5 194/2/5 193/2/5
f 198/2/5 194/2/5 197/2/5
f 199/2/5 164/2/5 163/2/5
f 200/3/5 195/3/5 164/3/5
f 200/2/5 164/2/5 199/2/5
f 201/1/5 196/1/5 195/1/5
f 201/3/5 195/3/5 200/3/5
f 202/2/5 190/2/5 196/2/5
f 202/1/5 196/1/5 201/1/5
f 203/1/5 192/1/5 191/1/5
f 203/2/5 190/2/5 202/2/5
f 203/1/5 191/1/5 190/1/5
f 203/1/5 193/1/5 192/1/5
f 204/2/5 197/2/5 193/2/5
f 204/1/5 193/1/5 203/1/5
f 205/1/5 198/1/5 197/1/5
f 205/2/5 197/2/5 204/2/5
f 206/1/5 198/1/5 205/1/5
f 207/1/6 208/1/6 213/1/6
f 213/1/6 208/1/6 214/1/6
f 208/2/6 209/2/6 215/2/6
f 214/1/6 208/1/6 215/1/6
f 211/1/6 212/1/6 216/1/6
f 210/2/6 211/2/6 216/2/6
f 216/1/6 212/1/6 217/1/6
f 214/2/6 215/2/6 219/2/6
f 215/2/6 209/2/6 220/2/6
f 209/1/6 210/1/6 220/1/6
f 219/2/6 215/2/6 220/2/6
f 220/1/6 210/1/6 221/1/6
f 221/1/6 210/1/6 222/1/6
f 216/2/6 217/2/6 223/2/6
f 222/1/6 210/1/6 223/1/6
f 210/2/6 216/2/6 223/2/6
f 223/2/6 217/2/6 224/2/6
f 218/1/6 219/1/6 225/1/6
f 220/2/6 221/2/6 225/2/6
f 219/1/6 220/1/6 225/1/6
f 221/1/6 222/1/6 226/1/6
f 225/2/6 221/2/6 226/2/6
f 222/2/6 223/2/6 227/2/6
f 226/1/6 222/1/6 227/1/6
f 223/1/6 224/1/6 228/1/6
f 227/2/6 223/2/6 228/2/6
f 218/1/6 225/1/6 229/1/6
f 226/1/6 227/1/6 229/1/6
f 227/1/6 228/1/6 229/1/6
f 225/1/6 226/1/6 229/1/6
f 229/1/6 228/1/6 230/1/6
f 230/1/6 228/1/6 231/1/6
f 228/1/6 224/1/6 232/1/6
f 231/1/6 228/1/6 232/1/6
f 218/1/6 229/1/6 233/1/6
f 233/1/6 229/1/6 234/1/6
f 229/2/6 230/2/6 235/2/6
f 234/1/6 229/1/6 235/1/6
f 230/1/6 231/1/6 236/1/6
f 235/2/6 230/2/6 236/2/6
f 231/2/6 232/2/6 237/2/6
f 236/1/6 231/1/6 237/1/6
f 232/1/6 224/1/6 238/1/6
f 237/2/6 232/2/6 238/2/6
f 238/1/6 224/1/6 239/1/6
f 234/2/6 235/2/6 241/2/6
f 241/2/6 235/2/6 242/2/6
f 238/2/6 239/2/6 243/2/6
f 243/2/6 239/2/6 244/2/6
f 240/1/6 241/1/6 245/1/6
f 241/1/6 242/1/6 245/1/6
f 242/2/6 235/2/6 246/2/6
f 245/1/6 242/1/6 246/1/6
f 236/1/6 237/1/6 247/1/6
f 246/2/6 235/2/6 247/2/6
f 235/1/6 236/1/6 247/1/6
f 237/1/6 238/1/6 247/1/6
f 238/2/6 243/2/6 248/2/6
f 247/1/6 238/1/6 248/1/6
f 243/1/6 244/1/6 249/1/6
f 248/2/6 243/2/6 249/2/6
f 249/1/6 244/1/6 250/1/6
f 251/3/6 252/3/6 253/3/6
f 253/3/6 252/3/6 254/3/6
f 254/2/6 255/2/6 257/2/6
f 257/2/6 255/2/6 258/2/6
f 256/3/6 257/3/6 259/3/6
f 259/3/6 257/3/6 260/3/6
f 260/2/6 261/2/6 263/2/6
f 263/2/6 261/2/6 264/2/6
f 262/3/6 263/3/6 265/3/6
f 265/3/6 263/3/6 266/3/6
f 267/3/6 268/3/6 269/3/6
f 269/3/6 268/3/6 270/3/6
f 270/2/6 271/2/6 273/2/6
f 273/2/6 271/2/6 274/2/6
f 272/3/6 273/3/6 275/3/6
f 275/3/6 273/3/6 276/3/6
f 276/2/6 277/2/6 279/2/6
f 279/2/6 277/2/6 280/2/6
f 278/3/6 279/3/6 281/3/6
f 281/3/6 279/3/6 282/3/6
f 283/2/6 284/2/6 285/2/6
f 283/2/6 285/2/6 287/2/6
f 285/2/6 286/2/6 287/2/6
f 287/2/6 286/2/6 288/2/6
f 283/2/6 287/2/6 289/2/6
f 283/2/6 289/2/6 291/2/6
f 289/2/6 290/2/6 291/2/6
f 291/2/6 290/2/6 292/2/6
f 283/2/6 291/2/6 293/2/6
f 293/2/6 291/2/6 294/2/6
