# MagicaVoxel @ Ephtracy

# group
o 

# material
mtllib Wall Window End.mtl
usemtl palette

# normals
vn 0 0 -1
vn 0 0 1
vn -1 0 0
vn 1 0 0
vn 0 -1 0
vn 0 1 0

# texcoords
vt 0.0175781 0.5
vt 0.0292969 0.5
vt 0.0449219 0.5

# verts
v -5 0 -5
v 5 0 -5
v -5 0.4 -5
v 1.9 0.4 -5
v 1.9 0.5 -5
v 2 0.5 -5
v 2 0.6 -5
v 2.1 0.6 -5
v 2.1 0.7 -5
v 2.2 0.7 -5
v 2.1 7.3 -5
v 2.2 7.3 -5
v 2 7.4 -5
v 2.1 7.4 -5
v 1.9 7.5 -5
v 2 7.5 -5
v -5 7.6 -5
v 1.9 7.6 -5
v -5 8 -5
v 5 8 -5
v -2.6 0.4 -4.5
v -2.5 0.4 -4.5
v -2.6 7.6 -4.5
v -2.5 7.6 -4.5
v -2.7 0.1 -4.5
v -2.6 0.1 -4.5
v -2.5 0.1 -4.5
v -2.4 0.1 -4.5
v -2.7 0.4 -4.5
v -2.6 0.4 -4.5
v -2.5 0.4 -4.5
v -2.4 0.4 -4.5
v 2.2 2.5 -4.5
v 2.5 2.5 -4.5
v 2.6 2.5 -4.5
v 5 2.5 -4.5
v 2.1 7.3 -4.5
v 2.2 7.3 -4.5
v 2 7.4 -4.5
v 2.1 7.4 -4.5
v 1.9 7.5 -4.5
v 2 7.5 -4.5
v -5 7.6 -4.5
v -2.6 7.6 -4.5
v -2.5 7.6 -4.5
v 1.9 7.6 -4.5
v -5 7.9 -4.5
v -2.6 7.9 -4.5
v -2.5 7.9 -4.5
v 2.5 7.9 -4.5
v 2.6 7.9 -4.5
v 5 7.9 -4.5
v -5 8 -4.5
v -2.6 8 -4.5
v -2.5 8 -4.5
v 2.5 8 -4.5
v 2.6 8 -4.5
v 5 8 -4.5
v -2.8 0.1 -4.4
v -2.7 0.1 -4.4
v -2.6 0.1 -4.4
v -2.5 0.1 -4.4
v -2.4 0.1 -4.4
v -2.3 0.1 -4.4
v -2.8 0.4 -4.4
v -2.7 0.4 -4.4
v -2.4 0.4 -4.4
v -2.3 0.4 -4.4
v 2.2 2.4 -4.4
v 2.5 2.4 -4.4
v 2.6 2.4 -4.4
v 5 2.4 -4.4
v 2.2 2.5 -4.4
v 2.5 2.5 -4.4
v 2.6 2.5 -4.4
v 5 2.5 -4.4
v -2.6 8 -4.4
v -2.5 8 -4.4
v 2.5 8 -4.4
v 2.6 8 -4.4
v -5 0.1 -4.3
v -2.8 0.1 -4.3
v -2.3 0.1 -4.3
v 2.5 0.1 -4.3
v 2.6 0.1 -4.3
v 5 0.1 -4.3
v -5 0.4 -4.3
v -2.8 0.4 -4.3
v -2.3 0.4 -4.3
v 1.9 0.4 -4.3
v 1.9 0.5 -4.3
v 2 0.5 -4.3
v 2 0.6 -4.3
v 2.1 0.6 -4.3
v 2.1 0.7 -4.3
v 2.2 0.7 -4.3
v 2.2 2.4 -4.3
v 2.5 2.4 -4.3
v 2.6 2.4 -4.3
v 5 2.4 -4.3
v 2.5 2.5 -4.3
v 2.6 2.5 -4.3
v 2.5 0.1 -4.2
v 2.6 0.1 -4.2
v 2.5 2.4 -4.2
v 2.6 2.4 -4.2
v -5 0 5
v -2.6 0 5
v -2.5 0 5
v 2.5 0 5
v 2.6 0 5
v 5 0 5
v -5 0.1 5
v -2.6 0.1 5
v -2.5 0.1 5
v 2.5 0.1 5
v 2.6 0.1 5
v 5 0.1 5
v -5 0 -5
v -5 0.4 -5
v -5 7.6 -5
v -5 8 -5
v -5 0 -4.9
v -5 0.4 -4.9
v -5 7.6 -4.9
v -5 7.9 -4.9
v -5 7.6 -4.5
v -5 7.9 -4.5
v -5 8 -4.5
v -5 0 -4.3
v -5 0.1 -4.3
v -5 0.4 -4.3
v -5 0 -2.6
v -5 0.1 -2.6
v -5 0 -2.5
v -5 0.1 -2.5
v -5 0 2.5
v -5 0.1 2.5
v -5 0 2.6
v -5 0.1 2.6
v -5 0 5
v -5 0.1 5
v -2.6 0.1 -4.5
v -2.6 0.4 -4.5
v -2.6 7.6 -4.5
v -2.6 7.9 -4.5
v -2.6 8 -4.5
v -2.6 0.1 -4.4
v -2.6 8 -4.4
v -2.4 0.1 -4.5
v -2.4 0.4 -4.5
v -2.4 0.1 -4.4
v -2.4 0.4 -4.4
v -2.3 0.1 -4.4
v -2.3 0.4 -4.4
v -2.3 0.1 -4.3
v -2.3 0.4 -4.3
v 1.9 0.4 -5
v 1.9 0.5 -5
v 1.9 7.5 -5
v 1.9 7.6 -5
v 1.9 0.4 -4.9
v 1.9 0.5 -4.9
v 1.9 7.5 -4.9
v 1.9 7.6 -4.9
v 1.9 7.5 -4.5
v 1.9 7.6 -4.5
v 1.9 0.4 -4.3
v 1.9 0.5 -4.3
v 2 0.5 -5
v 2 0.6 -5
v 2 7.4 -5
v 2 7.5 -5
v 2 0.5 -4.9
v 2 0.6 -4.9
v 2 7.4 -4.9
v 2 7.5 -4.9
v 2 7.4 -4.5
v 2 7.5 -4.5
v 2 0.5 -4.3
v 2 0.6 -4.3
v 2.1 0.6 -5
v 2.1 0.7 -5
v 2.1 7.3 -5
v 2.1 7.4 -5
v 2.1 0.6 -4.9
v 2.1 0.7 -4.9
v 2.1 7.3 -4.9
v 2.1 7.4 -4.9
v 2.1 7.3 -4.5
v 2.1 7.4 -4.5
v 2.1 0.6 -4.3
v 2.1 0.7 -4.3
v 2.2 0.7 -5
v 2.2 7.3 -5
v 2.2 0.7 -4.9
v 2.2 7.3 -4.9
v 2.2 2.5 -4.5
v 2.2 7.3 -4.5
v 2.2 2.4 -4.4
v 2.2 2.5 -4.4
v 2.2 0.7 -4.3
v 2.2 2.4 -4.3
v 2.5 2.5 -4.5
v 2.5 7.9 -4.5
v 2.5 8 -4.5
v 2.5 2.4 -4.4
v 2.5 2.5 -4.4
v 2.5 8 -4.4
v 2.5 0.1 -4.3
v 2.5 2.4 -4.3
v 2.5 2.5 -4.3
v 2.5 0.1 -4.2
v 2.5 2.4 -4.2
v -2.8 0.1 -4.4
v -2.8 0.4 -4.4
v -2.8 0.1 -4.3
v -2.8 0.4 -4.3
v -2.7 0.1 -4.5
v -2.7 0.4 -4.5
v -2.7 0.1 -4.4
v -2.7 0.4 -4.4
v -2.5 0.1 -4.5
v -2.5 0.4 -4.5
v -2.5 7.6 -4.5
v -2.5 7.9 -4.5
v -2.5 8 -4.5
v -2.5 0.1 -4.4
v -2.5 8 -4.4
v 2.6 2.5 -4.5
v 2.6 7.9 -4.5
v 2.6 8 -4.5
v 2.6 2.4 -4.4
v 2.6 2.5 -4.4
v 2.6 8 -4.4
v 2.6 0.1 -4.3
v 2.6 2.4 -4.3
v 2.6 2.5 -4.3
v 2.6 0.1 -4.2
v 2.6 2.4 -4.2
v 5 0 -5
v 5 8 -5
v 5 0 -4.9
v 5 7.9 -4.9
v 5 2.5 -4.5
v 5 7.9 -4.5
v 5 8 -4.5
v 5 2.4 -4.4
v 5 2.5 -4.4
v 5 0 -4.3
v 5 0.1 -4.3
v 5 2.4 -4.3
v 5 0 -2.6
v 5 0.1 -2.6
v 5 0 -2.5
v 5 0.1 -2.5
v 5 0 2.5
v 5 0.1 2.5
v 5 0 2.6
v 5 0.1 2.6
v 5 0 5
v 5 0.1 5
v -5 0 -5
v -5 0 -4.9
v -5 0 -4.3
v -5 0 -2.6
v -5 0 -2.5
v -5 0 2.5
v -5 0 2.6
v -5 0 5
v -2.8 0 -4.4
v -2.8 0 -4.3
v -2.7 0 -4.5
v -2.7 0 -4.4
v -2.6 0 -4.5
v -2.6 0 -2.6
v -2.6 0 2.6
v -2.6 0 5
v -2.5 0 -4.5
v -2.5 0 -2.5
v -2.5 0 -2.2
v -2.5 0 2.2
v -2.5 0 2.5
v -2.5 0 5
v -2.4 0 -4.5
v -2.4 0 -4.4
v -2.3 0 -4.4
v -2.3 0 -4.3
v -2.2 0 -2.5
v -2.2 0 -2.2
v -2.2 0 2.2
v -2.2 0 2.5
v 2.2 0 -2.5
v 2.2 0 -2.2
v 2.2 0 2.2
v 2.2 0 2.5
v 2.5 0 -4.3
v 2.5 0 -2.5
v 2.5 0 -2.2
v 2.5 0 2.2
v 2.5 0 2.5
v 2.5 0 5
v 2.6 0 -4.3
v 2.6 0 -2.6
v 2.6 0 2.6
v 2.6 0 5
v 5 0 -5
v 5 0 -4.9
v 5 0 -4.3
v 5 0 -2.6
v 5 0 -2.5
v 5 0 2.5
v 5 0 2.6
v 5 0 5
v 2.1 7.3 -5
v 2.1 7.3 -4.9
v 2.1 7.3 -4.5
v 2.2 7.3 -5
v 2.2 7.3 -4.9
v 2.2 7.3 -4.5
v 2 7.4 -5
v 2 7.4 -4.9
v 2 7.4 -4.5
v 2.1 7.4 -5
v 2.1 7.4 -4.9
v 2.1 7.4 -4.5
v 1.9 7.5 -5
v 1.9 7.5 -4.9
v 1.9 7.5 -4.5
v 2 7.5 -5
v 2 7.5 -4.9
v 2 7.5 -4.5
v -5 7.6 -5
v -5 7.6 -4.9
v -5 7.6 -4.5
v -2.6 7.6 -4.5
v -2.5 7.6 -4.5
v 1.9 7.6 -5
v 1.9 7.6 -4.9
v 1.9 7.6 -4.5
v -5 0.1 -4.3
v -5 0.1 -2.6
v -5 0.1 -2.5
v -5 0.1 2.5
v -5 0.1 2.6
v -5 0.1 5
v -2.8 0.1 -4.4
v -2.8 0.1 -4.3
v -2.7 0.1 -4.5
v -2.7 0.1 -4.4
v -2.6 0.1 -4.5
v -2.6 0.1 -4.4
v -2.6 0.1 -2.6
v -2.6 0.1 2.6
v -2.6 0.1 5
v -2.5 0.1 -4.5
v -2.5 0.1 -4.4
v -2.5 0.1 -2.5
v -2.5 0.1 -2.2
v -2.5 0.1 2.2
v -2.5 0.1 2.5
v -2.5 0.1 5
v -2.4 0.1 -4.5
v -2.4 0.1 -4.4
v -2.3 0.1 -4.4
v -2.3 0.1 -4.3
v -2.2 0.1 -2.5
v -2.2 0.1 -2.2
v -2.2 0.1 2.2
v -2.2 0.1 2.5
v 2.2 0.1 -2.5
v 2.2 0.1 -2.2
v 2.2 0.1 2.2
v 2.2 0.1 2.5
v 2.5 0.1 -4.3
v 2.5 0.1 -4.2
v 2.5 0.1 -2.5
v 2.5 0.1 -2.2
v 2.5 0.1 2.2
v 2.5 0.1 2.5
v 2.5 0.1 5
v 2.6 0.1 -4.3
v 2.6 0.1 -4.2
v 2.6 0.1 -2.6
v 2.6 0.1 2.6
v 2.6 0.1 5
v 5 0.1 -4.3
v 5 0.1 -2.6
v 5 0.1 -2.5
v 5 0.1 2.5
v 5 0.1 2.6
v 5 0.1 5
v -5 0.4 -5
v -5 0.4 -4.9
v -5 0.4 -4.3
v -2.8 0.4 -4.4
v -2.8 0.4 -4.3
v -2.7 0.4 -4.5
v -2.7 0.4 -4.4
v -2.6 0.4 -4.5
v -2.5 0.4 -4.5
v -2.4 0.4 -4.5
v -2.4 0.4 -4.4
v -2.3 0.4 -4.4
v -2.3 0.4 -4.3
v 1.9 0.4 -5
v 1.9 0.4 -4.9
v 1.9 0.4 -4.3
v 1.9 0.5 -5
v 1.9 0.5 -4.9
v 1.9 0.5 -4.3
v 2 0.5 -5
v 2 0.5 -4.9
v 2 0.5 -4.3
v 2 0.6 -5
v 2 0.6 -4.9
v 2 0.6 -4.3
v 2.1 0.6 -5
v 2.1 0.6 -4.9
v 2.1 0.6 -4.3
v 2.1 0.7 -5
v 2.1 0.7 -4.9
v 2.1 0.7 -4.3
v 2.2 0.7 -5
v 2.2 0.7 -4.9
v 2.2 0.7 -4.3
v 2.2 2.4 -4.4
v 2.2 2.4 -4.3
v 2.5 2.4 -4.4
v 2.5 2.4 -4.3
v 2.5 2.4 -4.2
v 2.6 2.4 -4.4
v 2.6 2.4 -4.3
v 2.6 2.4 -4.2
v 5 2.4 -4.4
v 5 2.4 -4.3
v 2.2 2.5 -4.5
v 2.2 2.5 -4.4
v 2.5 2.5 -4.5
v 2.5 2.5 -4.4
v 2.5 2.5 -4.3
v 2.6 2.5 -4.5
v 2.6 2.5 -4.4
v 2.6 2.5 -4.3
v 5 2.5 -4.5
v 5 2.5 -4.4
v -5 8 -5
v -5 8 -4.5
v -2.6 8 -4.5
v -2.6 8 -4.4
v -2.5 8 -4.5
v -2.5 8 -4.4
v 2.5 8 -4.5
v 2.5 8 -4.4
v 2.6 8 -4.5
v 2.6 8 -4.4
v 5 8 -5
v 5 8 -4.5

# faces
f 3/2/1 2/2/1 1/2/1
f 4/2/1 2/2/1 3/2/1
f 5/2/1 2/2/1 4/2/1
f 6/2/1 2/2/1 5/2/1
f 7/2/1 2/2/1 6/2/1
f 8/2/1 2/2/1 7/2/1
f 9/2/1 2/2/1 8/2/1
f 10/2/1 2/2/1 9/2/1
f 12/2/1 2/2/1 10/2/1
f 14/2/1 12/2/1 11/2/1
f 16/2/1 14/2/1 13/2/1
f 18/2/1 16/2/1 15/2/1
f 19/2/1 18/2/1 17/2/1
f 20/2/1 2/2/1 12/2/1
f 20/2/1 18/2/1 19/2/1
f 20/2/1 12/2/1 14/2/1
f 20/2/1 16/2/1 18/2/1
f 20/2/1 14/2/1 16/2/1
f 23/2/1 22/2/1 21/2/1
f 24/2/1 22/2/1 23/2/1
f 25/3/2 26/3/2 29/3/2
f 29/3/2 26/3/2 30/3/2
f 27/3/2 28/3/2 31/3/2
f 31/3/2 28/3/2 32/3/2
f 33/3/2 34/3/2 38/3/2
f 37/3/2 38/3/2 40/3/2
f 39/3/2 40/3/2 42/3/2
f 41/3/2 42/3/2 46/3/2
f 43/3/2 44/3/2 47/3/2
f 47/3/2 44/3/2 48/3/2
f 45/3/2 46/3/2 49/3/2
f 38/3/2 34/3/2 50/3/2
f 49/3/2 46/3/2 50/3/2
f 40/3/2 38/3/2 50/3/2
f 42/3/2 40/3/2 50/3/2
f 46/3/2 42/3/2 50/3/2
f 35/3/2 36/3/2 51/3/2
f 51/3/2 36/3/2 52/3/2
f 47/2/2 48/2/2 53/2/2
f 53/2/2 48/2/2 54/2/2
f 49/2/2 50/2/2 55/2/2
f 55/2/2 50/2/2 56/2/2
f 51/2/2 52/2/2 57/2/2
f 57/2/2 52/2/2 58/2/2
f 59/3/2 60/3/2 65/3/2
f 65/3/2 60/3/2 66/3/2
f 63/3/2 64/3/2 67/3/2
f 67/3/2 64/3/2 68/3/2
f 69/3/2 70/3/2 73/3/2
f 73/3/2 70/3/2 74/3/2
f 71/3/2 72/3/2 75/3/2
f 75/3/2 72/3/2 76/3/2
f 61/2/2 62/2/2 77/2/2
f 77/2/2 62/2/2 78/2/2
f 74/2/2 75/2/2 79/2/2
f 79/2/2 75/2/2 80/2/2
f 81/3/2 82/3/2 87/3/2
f 87/3/2 82/3/2 88/3/2
f 83/3/2 84/3/2 89/3/2
f 89/3/2 84/3/2 90/3/2
f 90/3/2 84/3/2 91/3/2
f 91/3/2 84/3/2 92/3/2
f 92/3/2 84/3/2 93/3/2
f 93/3/2 84/3/2 94/3/2
f 94/3/2 84/3/2 95/3/2
f 95/3/2 84/3/2 96/3/2
f 96/3/2 84/3/2 97/3/2
f 97/3/2 84/3/2 98/3/2
f 85/3/2 86/3/2 99/3/2
f 99/3/2 86/3/2 100/3/2
f 98/2/2 99/2/2 101/2/2
f 101/2/2 99/2/2 102/2/2
f 103/2/2 104/2/2 105/2/2
f 105/2/2 104/2/2 106/2/2
f 107/1/2 108/1/2 113/1/2
f 108/2/2 109/2/2 114/2/2
f 113/1/2 108/1/2 114/1/2
f 109/1/2 110/1/2 115/1/2
f 114/2/2 109/2/2 115/2/2
f 110/2/2 111/2/2 116/2/2
f 115/1/2 110/1/2 116/1/2
f 111/1/2 112/1/2 117/1/2
f 116/2/2 111/2/2 117/2/2
f 117/1/2 112/1/2 118/1/2
f 123/2/3 120/2/3 119/2/3
f 124/2/3 120/2/3 123/2/3
f 125/2/3 122/2/3 121/2/3
f 126/2/3 122/2/3 125/2/3
f 127/3/3 126/3/3 125/3/3
f 128/2/3 122/2/3 126/2/3
f 128/3/3 126/3/3 127/3/3
f 129/2/3 122/2/3 128/2/3
f 130/3/3 124/3/3 123/3/3
f 131/3/3 124/3/3 130/3/3
f 132/3/3 124/3/3 131/3/3
f 133/1/3 131/1/3 130/1/3
f 134/1/3 131/1/3 133/1/3
f 135/2/3 134/2/3 133/2/3
f 136/2/3 134/2/3 135/2/3
f 137/1/3 136/1/3 135/1/3
f 138/1/3 136/1/3 137/1/3
f 139/2/3 138/2/3 137/2/3
f 140/2/3 138/2/3 139/2/3
f 141/1/3 140/1/3 139/1/3
f 142/1/3 140/1/3 141/1/3
f 148/2/3 144/2/3 143/2/3
f 148/2/3 147/2/3 146/2/3
f 148/2/3 146/2/3 145/2/3
f 148/2/3 145/2/3 144/2/3
f 149/2/3 147/2/3 148/2/3
f 152/3/3 151/3/3 150/3/3
f 153/3/3 151/3/3 152/3/3
f 156/3/3 155/3/3 154/3/3
f 157/3/3 155/3/3 156/3/3
f 162/2/3 159/2/3 158/2/3
f 163/2/3 159/2/3 162/2/3
f 164/2/3 161/2/3 160/2/3
f 165/2/3 161/2/3 164/2/3
f 166/3/3 165/3/3 164/3/3
f 167/3/3 165/3/3 166/3/3
f 168/3/3 163/3/3 162/3/3
f 169/3/3 163/3/3 168/3/3
f 174/2/3 171/2/3 170/2/3
f 175/2/3 171/2/3 174/2/3
f 176/2/3 173/2/3 172/2/3
f 177/2/3 173/2/3 176/2/3
f 178/3/3 177/3/3 176/3/3
f 179/3/3 177/3/3 178/3/3
f 180/3/3 175/3/3 174/3/3
f 181/3/3 175/3/3 180/3/3
f 186/2/3 183/2/3 182/2/3
f 187/2/3 183/2/3 186/2/3
f 188/2/3 185/2/3 184/2/3
f 189/2/3 185/2/3 188/2/3
f 190/3/3 189/3/3 188/3/3
f 191/3/3 189/3/3 190/3/3
f 192/3/3 187/3/3 186/3/3
f 193/3/3 187/3/3 192/3/3
f 196/2/3 195/2/3 194/2/3
f 197/2/3 195/2/3 196/2/3
f 198/3/3 197/3/3 196/3/3
f 199/3/3 197/3/3 198/3/3
f 200/3/3 198/3/3 196/3/3
f 201/3/3 198/3/3 200/3/3
f 202/3/3 200/3/3 196/3/3
f 203/3/3 200/3/3 202/3/3
f 208/2/3 205/2/3 204/2/3
f 208/2/3 206/2/3 205/2/3
f 209/2/3 206/2/3 208/2/3
f 211/2/3 208/2/3 207/2/3
f 212/2/3 208/2/3 211/2/3
f 213/2/3 211/2/3 210/2/3
f 214/2/3 211/2/3 213/2/3
f 215/3/4 216/3/4 217/3/4
f 217/3/4 216/3/4 218/3/4
f 219/3/4 220/3/4 221/3/4
f 221/3/4 220/3/4 222/3/4
f 223/2/4 224/2/4 228/2/4
f 226/2/4 227/2/4 228/2/4
f 225/2/4 226/2/4 228/2/4
f 224/2/4 225/2/4 228/2/4
f 228/2/4 227/2/4 229/2/4
f 230/2/4 231/2/4 234/2/4
f 231/2/4 232/2/4 234/2/4
f 234/2/4 232/2/4 235/2/4
f 233/2/4 234/2/4 237/2/4
f 237/2/4 234/2/4 238/2/4
f 236/2/4 237/2/4 239/2/4
f 239/2/4 237/2/4 240/2/4
f 241/2/4 242/2/4 243/2/4
f 243/2/4 242/2/4 244/2/4
f 243/3/4 244/3/4 245/3/4
f 244/2/4 242/2/4 246/2/4
f 245/3/4 244/3/4 246/3/4
f 246/2/4 242/2/4 247/2/4
f 243/3/4 245/3/4 248/3/4
f 248/3/4 245/3/4 249/3/4
f 243/3/4 248/3/4 250/3/4
f 250/3/4 248/3/4 251/3/4
f 251/3/4 248/3/4 252/3/4
f 250/1/4 251/1/4 253/1/4
f 253/1/4 251/1/4 254/1/4
f 253/2/4 254/2/4 255/2/4
f 255/2/4 254/2/4 256/2/4
f 255/1/4 256/1/4 257/1/4
f 257/1/4 256/1/4 258/1/4
f 257/2/4 258/2/4 259/2/4
f 259/2/4 258/2/4 260/2/4
f 259/1/4 260/1/4 261/1/4
f 261/1/4 260/1/4 262/1/4
f 271/3/5 265/3/5 264/3/5
f 272/1/5 266/1/5 265/1/5
f 272/3/5 265/3/5 271/3/5
f 273/3/5 271/3/5 264/3/5
f 274/1/5 272/1/5 271/1/5
f 274/3/5 271/3/5 273/3/5
f 275/3/5 273/3/5 264/3/5
f 275/1/5 274/1/5 273/1/5
f 276/1/5 266/1/5 272/1/5
f 276/1/5 274/1/5 275/1/5
f 276/2/5 267/2/5 266/2/5
f 276/1/5 272/1/5 274/1/5
f 277/1/5 270/1/5 269/1/5
f 277/2/5 269/2/5 268/2/5
f 278/1/5 270/1/5 277/1/5
f 279/3/5 275/3/5 264/3/5
f 279/2/5 276/2/5 275/2/5
f 280/2/5 267/2/5 276/2/5
f 280/2/5 276/2/5 279/2/5
f 280/1/5 268/1/5 267/1/5
f 281/1/5 268/1/5 280/1/5
f 282/1/5 268/1/5 281/1/5
f 283/2/5 278/2/5 277/2/5
f 283/1/5 268/1/5 282/1/5
f 283/2/5 277/2/5 268/2/5
f 284/2/5 278/2/5 283/2/5
f 285/3/5 279/3/5 264/3/5
f 285/1/5 280/1/5 279/1/5
f 286/1/5 280/1/5 285/1/5
f 287/3/5 286/3/5 285/3/5
f 287/1/5 280/1/5 286/1/5
f 288/1/5 280/1/5 287/1/5
f 289/2/5 281/2/5 280/2/5
f 289/1/5 280/1/5 288/1/5
f 290/1/5 282/1/5 281/1/5
f 290/2/5 281/2/5 289/2/5
f 291/2/5 283/2/5 282/2/5
f 291/1/5 282/1/5 290/1/5
f 292/1/5 284/1/5 283/1/5
f 292/2/5 283/2/5 291/2/5
f 293/1/5 289/1/5 288/1/5
f 293/1/5 291/1/5 290/1/5
f 293/1/5 292/1/5 291/1/5
f 293/1/5 290/1/5 289/1/5
f 294/1/5 292/1/5 293/1/5
f 295/1/5 292/1/5 294/1/5
f 296/1/5 284/1/5 292/1/5
f 296/1/5 292/1/5 295/1/5
f 297/3/5 288/3/5 287/3/5
f 297/1/5 293/1/5 288/1/5
f 298/2/5 294/2/5 293/2/5
f 298/1/5 293/1/5 297/1/5
f 299/1/5 295/1/5 294/1/5
f 299/2/5 294/2/5 298/2/5
f 300/2/5 296/2/5 295/2/5
f 300/1/5 295/1/5 299/1/5
f 301/1/5 284/1/5 296/1/5
f 301/2/5 296/2/5 300/2/5
f 302/1/5 284/1/5 301/1/5
f 303/2/5 298/2/5 297/2/5
f 303/3/5 297/3/5 287/3/5
f 304/2/5 298/2/5 303/2/5
f 305/2/5 302/2/5 301/2/5
f 306/2/5 302/2/5 305/2/5
f 307/2/5 264/2/5 263/2/5
f 308/3/5 287/3/5 285/3/5
f 308/2/5 264/2/5 307/2/5
f 308/3/5 285/3/5 264/3/5
f 308/3/5 303/3/5 287/3/5
f 309/1/5 304/1/5 303/1/5
f 309/3/5 303/3/5 308/3/5
f 310/2/5 298/2/5 304/2/5
f 310/1/5 304/1/5 309/1/5
f 311/1/5 300/1/5 299/1/5
f 311/2/5 298/2/5 310/2/5
f 311/1/5 299/1/5 298/1/5
f 311/1/5 301/1/5 300/1/5
f 312/2/5 305/2/5 301/2/5
f 312/1/5 301/1/5 311/1/5
f 313/1/5 306/1/5 305/1/5
f 313/2/5 305/2/5 312/2/5
f 314/1/5 306/1/5 313/1/5
f 318/2/5 316/2/5 315/2/5
f 319/3/5 317/3/5 316/3/5
f 319/2/5 316/2/5 318/2/5
f 320/3/5 317/3/5 319/3/5
f 324/2/5 322/2/5 321/2/5
f 325/3/5 323/3/5 322/3/5
f 325/2/5 322/2/5 324/2/5
f 326/3/5 323/3/5 325/3/5
f 330/2/5 328/2/5 327/2/5
f 331/3/5 329/3/5 328/3/5
f 331/2/5 328/2/5 330/2/5
f 332/3/5 329/3/5 331/3/5
f 336/3/5 335/3/5 334/3/5
f 337/3/5 336/3/5 334/3/5
f 338/2/5 334/2/5 333/2/5
f 339/3/5 337/3/5 334/3/5
f 339/2/5 334/2/5 338/2/5
f 340/3/5 337/3/5 339/3/5
f 341/1/6 342/1/6 348/1/6
f 347/1/6 348/1/6 350/1/6
f 349/1/6 350/1/6 351/1/6
f 350/1/6 348/1/6 352/1/6
f 351/1/6 350/1/6 352/1/6
f 342/2/6 343/2/6 353/2/6
f 352/1/6 348/1/6 353/1/6
f 348/1/6 342/1/6 353/1/6
f 345/1/6 346/1/6 354/1/6
f 344/2/6 345/2/6 354/2/6
f 354/1/6 346/1/6 355/1/6
f 352/2/6 353/2/6 357/2/6
f 353/2/6 343/2/6 358/2/6
f 343/1/6 344/1/6 358/1/6
f 357/2/6 353/2/6 358/2/6
f 358/1/6 344/1/6 359/1/6
f 359/1/6 344/1/6 360/1/6
f 354/2/6 355/2/6 361/2/6
f 360/1/6 344/1/6 361/1/6
f 344/2/6 354/2/6 361/2/6
f 361/2/6 355/2/6 362/2/6
f 356/1/6 357/1/6 363/1/6
f 357/1/6 358/1/6 363/1/6
f 363/1/6 358/1/6 364/1/6
f 364/1/6 358/1/6 365/1/6
f 365/1/6 358/1/6 366/1/6
f 358/2/6 359/2/6 367/2/6
f 366/1/6 358/1/6 367/1/6
f 359/1/6 360/1/6 368/1/6
f 367/2/6 359/2/6 368/2/6
f 360/2/6 361/2/6 369/2/6
f 368/1/6 360/1/6 369/1/6
f 361/1/6 362/1/6 370/1/6
f 369/2/6 361/2/6 370/2/6
f 366/1/6 367/1/6 371/1/6
f 368/1/6 369/1/6 371/1/6
f 369/1/6 370/1/6 371/1/6
f 367/1/6 368/1/6 371/1/6
f 371/1/6 370/1/6 372/1/6
f 372/1/6 370/1/6 373/1/6
f 370/1/6 362/1/6 374/1/6
f 373/1/6 370/1/6 374/1/6
f 366/1/6 371/1/6 375/1/6
f 375/1/6 371/1/6 376/1/6
f 371/2/6 372/2/6 377/2/6
f 376/1/6 371/1/6 377/1/6
f 372/1/6 373/1/6 378/1/6
f 377/2/6 372/2/6 378/2/6
f 373/2/6 374/2/6 379/2/6
f 378/1/6 373/1/6 379/1/6
f 374/1/6 362/1/6 380/1/6
f 379/2/6 374/2/6 380/2/6
f 380/1/6 362/1/6 381/1/6
f 376/2/6 377/2/6 383/2/6
f 383/2/6 377/2/6 384/2/6
f 380/2/6 381/2/6 385/2/6
f 385/2/6 381/2/6 386/2/6
f 382/1/6 383/1/6 387/1/6
f 383/1/6 384/1/6 387/1/6
f 384/2/6 377/2/6 388/2/6
f 387/1/6 384/1/6 388/1/6
f 378/1/6 379/1/6 389/1/6
f 388/2/6 377/2/6 389/2/6
f 377/1/6 378/1/6 389/1/6
f 379/1/6 380/1/6 389/1/6
f 380/2/6 385/2/6 390/2/6
f 389/1/6 380/1/6 390/1/6
f 385/1/6 386/1/6 391/1/6
f 390/2/6 385/2/6 391/2/6
f 391/1/6 386/1/6 392/1/6
f 394/3/6 395/3/6 396/3/6
f 396/3/6 395/3/6 397/3/6
f 394/3/6 396/3/6 398/3/6
f 398/3/6 396/3/6 399/3/6
f 394/3/6 398/3/6 400/3/6
f 394/3/6 400/3/6 401/3/6
f 394/3/6 401/3/6 402/3/6
f 402/3/6 403/3/6 404/3/6
f 393/2/6 394/2/6 406/2/6
f 404/3/6 405/3/6 407/3/6
f 406/2/6 394/2/6 407/2/6
f 402/3/6 404/3/6 407/3/6
f 394/3/6 402/3/6 407/3/6
f 407/3/6 405/3/6 408/3/6
f 409/2/6 410/2/6 412/2/6
f 410/3/6 411/3/6 413/3/6
f 412/2/6 410/2/6 413/2/6
f 413/3/6 411/3/6 414/3/6
f 415/2/6 416/2/6 418/2/6
f 416/3/6 417/3/6 419/3/6
f 418/2/6 416/2/6 419/2/6
f 419/3/6 417/3/6 420/3/6
f 421/2/6 422/2/6 424/2/6
f 422/3/6 423/3/6 425/3/6
f 424/2/6 422/2/6 425/2/6
f 425/3/6 423/3/6 426/3/6
f 427/3/6 428/3/6 429/3/6
f 429/3/6 428/3/6 430/3/6
f 430/2/6 431/2/6 433/2/6
f 433/2/6 431/2/6 434/2/6
f 432/3/6 433/3/6 435/3/6
f 435/3/6 433/3/6 436/3/6
f 437/3/6 438/3/6 439/3/6
f 439/3/6 438/3/6 440/3/6
f 440/2/6 441/2/6 443/2/6
f 443/2/6 441/2/6 444/2/6
f 442/3/6 443/3/6 445/3/6
f 445/3/6 443/3/6 446/3/6
f 447/2/6 448/2/6 449/2/6
f 447/2/6 449/2/6 451/2/6
f 449/2/6 450/2/6 451/2/6
f 451/2/6 450/2/6 452/2/6
f 447/2/6 451/2/6 453/2/6
f 447/2/6 453/2/6 455/2/6
f 453/2/6 454/2/6 455/2/6
f 455/2/6 454/2/6 456/2/6
f 447/2/6 455/2/6 457/2/6
f 457/2/6 455/2/6 458/2/6
