# MagicaVoxel @ Ephtracy

# group
o 

# material
mtllib Corner 2.mtl
usemtl palette

# normals
vn 0 0 -1
vn 0 0 1
vn -1 0 0
vn 1 0 0
vn 0 -1 0
vn 0 1 0

# texcoords
vt 0.0292969 0.5
vt 0.0449219 0.5

# verts
v -5 0 -5
v -4.3 0 -5
v -4.4 2.4 -5
v -4.3 2.4 -5
v -4.5 2.5 -5
v -4.4 2.5 -5
v -5 7.9 -5
v -4.5 7.9 -5
v -5 8 -5
v -4.5 8 -5
v -5 2.5 -4.5
v -4.5 2.5 -4.5
v -5 7.9 -4.5
v -4.5 7.9 -4.5
v -5 8 -4.5
v -4.5 8 -4.5
v -5 2.4 -4.4
v -4.4 2.4 -4.4
v -5 2.5 -4.4
v -4.4 2.5 -4.4
v -5 0 -4.3
v -4.3 0 -4.3
v -5 2.4 -4.3
v -4.3 2.4 -4.3
v -5 0 -5
v -5 7.9 -5
v -5 8 -5
v -5 2.5 -4.5
v -5 7.9 -4.5
v -5 8 -4.5
v -5 2.4 -4.4
v -5 2.5 -4.4
v -5 0 -4.3
v -5 2.4 -4.3
v -4.5 2.5 -5
v -4.5 7.9 -5
v -4.5 8 -5
v -4.5 2.5 -4.5
v -4.5 7.9 -4.5
v -4.5 8 -4.5
v -4.4 2.4 -5
v -4.4 2.5 -5
v -4.4 2.4 -4.4
v -4.4 2.5 -4.4
v -4.3 0 -5
v -4.3 2.4 -5
v -4.3 0 -4.3
v -4.3 2.4 -4.3
v -5 0 -5
v -5 0 -4.3
v -4.3 0 -5
v -4.3 0 -4.3
v -5 2.4 -4.4
v -5 2.4 -4.3
v -4.4 2.4 -5
v -4.4 2.4 -4.4
v -4.3 2.4 -5
v -4.3 2.4 -4.3
v -5 2.5 -4.5
v -5 2.5 -4.4
v -4.5 2.5 -5
v -4.5 2.5 -4.5
v -4.4 2.5 -5
v -4.4 2.5 -4.4
v -5 8 -5
v -5 8 -4.5
v -4.5 8 -5
v -4.5 8 -4.5

# faces
f 3/2/1 2/2/1 1/2/1
f 4/2/1 2/2/1 3/2/1
f 5/2/1 3/2/1 1/2/1
f 6/2/1 3/2/1 5/2/1
f 7/2/1 5/2/1 1/2/1
f 8/2/1 5/2/1 7/2/1
f 9/1/1 8/1/1 7/1/1
f 10/1/1 8/1/1 9/1/1
f 11/2/2 12/2/2 13/2/2
f 13/2/2 12/2/2 14/2/2
f 13/1/2 14/1/2 15/1/2
f 15/1/2 14/1/2 16/1/2
f 17/2/2 18/2/2 19/2/2
f 19/2/2 18/2/2 20/2/2
f 21/2/2 22/2/2 23/2/2
f 23/2/2 22/2/2 24/2/2
f 28/2/3 26/2/3 25/2/3
f 29/1/3 27/1/3 26/1/3
f 29/2/3 26/2/3 28/2/3
f 30/1/3 27/1/3 29/1/3
f 31/2/3 28/2/3 25/2/3
f 32/2/3 28/2/3 31/2/3
f 33/2/3 31/2/3 25/2/3
f 34/2/3 31/2/3 33/2/3
f 35/2/4 36/2/4 38/2/4
f 36/1/4 37/1/4 39/1/4
f 38/2/4 36/2/4 39/2/4
f 39/1/4 37/1/4 40/1/4
f 41/2/4 42/2/4 43/2/4
f 43/2/4 42/2/4 44/2/4
f 45/2/4 46/2/4 47/2/4
f 47/2/4 46/2/4 48/2/4
f 51/2/5 50/2/5 49/2/5
f 52/2/5 50/2/5 51/2/5
f 53/2/6 54/2/6 56/2/6
f 55/2/6 56/2/6 57/2/6
f 56/2/6 54/2/6 58/2/6
f 57/2/6 56/2/6 58/2/6
f 59/2/6 60/2/6 62/2/6
f 61/2/6 62/2/6 63/2/6
f 62/2/6 60/2/6 64/2/6
f 63/2/6 62/2/6 64/2/6
f 65/1/6 66/1/6 67/1/6
f 67/1/6 66/1/6 68/1/6
