# MagicaVoxel @ Ephtracy

# group
o 

# material
mtllib Corner.mtl
usemtl palette

# normals
vn -1 0 0
vn 1 0 0
vn 0 0 1
vn 0 0 -1
vn 0 -1 0
vn 0 1 0

# texcoords
vt 0.0292969 0.5
vt 0.0449219 0.5

# verts
v -5 0 5
v -5 0 -5
v -5 7.9 5
v -5 7.9 -5
v -5 8 5
v -5 8 -5
v -4.5 2.5 5
v -4.5 2.5 -4.5
v -4.5 7.9 5
v -4.5 7.9 -4.5
v -4.5 8 5
v -4.5 8 -4.5
v -4.4 2.4 5
v -4.4 2.4 -4.4
v -4.4 2.5 5
v -4.4 2.5 -4.4
v -4.3 0 5
v -4.3 0 -4.3
v -4.3 2.4 5
v -4.3 2.4 -4.3
v 5 0 -4.3
v 5 0 -5
v 5 2.4 -4.3
v 5 2.4 -4.4
v 5 2.5 -4.4
v 5 2.5 -4.5
v 5 7.9 -4.5
v 5 7.9 -5
v 5 8 -4.5
v 5 8 -5
v -5 0 5
v -5 7.9 5
v -5 8 5
v -4.5 2.5 5
v -4.5 7.9 5
v -4.5 8 5
v -4.4 2.4 5
v -4.4 2.5 5
v -4.3 0 5
v -4.3 2.4 5
v -4.3 0 -4.3
v -4.3 2.4 -4.3
v 5 0 -4.3
v 5 2.4 -4.3
v -4.4 2.4 -4.4
v -4.4 2.5 -4.4
v 5 2.4 -4.4
v 5 2.5 -4.4
v -4.5 2.5 -4.5
v -4.5 7.9 -4.5
v -4.5 8 -4.5
v 5 2.5 -4.5
v 5 7.9 -4.5
v 5 8 -4.5
v -5 0 -5
v -5 7.9 -5
v -5 8 -5
v 5 0 -5
v 5 7.9 -5
v 5 8 -5
v -5 0 5
v -4.3 0 5
v -4.3 0 -4.3
v 5 0 -4.3
v -5 0 -5
v 5 0 -5
v -4.4 2.4 5
v -4.3 2.4 5
v -4.3 2.4 -4.3
v 5 2.4 -4.3
v -4.4 2.4 -4.4
v 5 2.4 -4.4
v -4.5 2.5 5
v -4.4 2.5 5
v -4.4 2.5 -4.4
v 5 2.5 -4.4
v -4.5 2.5 -4.5
v 5 2.5 -4.5
v -5 8 5
v -4.5 8 5
v -4.5 8 -4.5
v 5 8 -4.5
v -5 8 -5
v 5 8 -5

# faces
f 3/2/1 2/2/1 1/2/1
f 4/2/1 2/2/1 3/2/1
f 5/1/1 4/1/1 3/1/1
f 6/1/1 4/1/1 5/1/1
f 7/2/2 8/2/2 9/2/2
f 9/2/2 8/2/2 10/2/2
f 9/1/2 10/1/2 11/1/2
f 11/1/2 10/1/2 12/1/2
f 13/2/2 14/2/2 15/2/2
f 15/2/2 14/2/2 16/2/2
f 17/2/2 18/2/2 19/2/2
f 19/2/2 18/2/2 20/2/2
f 21/2/2 22/2/2 23/2/2
f 23/2/2 22/2/2 24/2/2
f 24/2/2 22/2/2 25/2/2
f 25/2/2 22/2/2 26/2/2
f 26/2/2 22/2/2 27/2/2
f 27/2/2 22/2/2 28/2/2
f 27/1/2 28/1/2 29/1/2
f 29/1/2 28/1/2 30/1/2
f 34/2/3 32/2/3 31/2/3
f 35/1/3 33/1/3 32/1/3
f 35/2/3 32/2/3 34/2/3
f 36/1/3 33/1/3 35/1/3
f 37/2/3 34/2/3 31/2/3
f 38/2/3 34/2/3 37/2/3
f 39/2/3 37/2/3 31/2/3
f 40/2/3 37/2/3 39/2/3
f 43/2/3 42/2/3 41/2/3
f 44/2/3 42/2/3 43/2/3
f 47/2/3 46/2/3 45/2/3
f 48/2/3 46/2/3 47/2/3
f 52/2/3 50/2/3 49/2/3
f 53/1/3 51/1/3 50/1/3
f 53/2/3 50/2/3 52/2/3
f 54/1/3 51/1/3 53/1/3
f 55/2/4 56/2/4 58/2/4
f 56/1/4 57/1/4 59/1/4
f 58/2/4 56/2/4 59/2/4
f 59/1/4 57/1/4 60/1/4
f 63/2/5 62/2/5 61/2/5
f 65/2/5 63/2/5 61/2/5
f 65/2/5 64/2/5 63/2/5
f 66/2/5 64/2/5 65/2/5
f 67/2/6 68/2/6 69/2/6
f 67/2/6 69/2/6 71/2/6
f 69/2/6 70/2/6 71/2/6
f 71/2/6 70/2/6 72/2/6
f 73/2/6 74/2/6 75/2/6
f 73/2/6 75/2/6 77/2/6
f 75/2/6 76/2/6 77/2/6
f 77/2/6 76/2/6 78/2/6
f 79/1/6 80/1/6 81/1/6
f 79/1/6 81/1/6 83/1/6
f 81/1/6 82/1/6 83/1/6
f 83/1/6 82/1/6 84/1/6
